<svg xmlns="http://www.w3.org/2000/svg" xmlns:xlink="http://www.w3.org/1999/xlink" width="2245" zoomAndPan="magnify" viewBox="0 0 1683.75 1190.250009" height="1587" preserveAspectRatio="xMidYMid meet" version="1.0"><defs><g/><clipPath id="a852c93539"><path d="M 0.0820312 0.300781 L 1666.550781 0.300781 L 1666.550781 835.695312 L 0.0820312 835.695312 Z M 0.0820312 0.300781 " clip-rule="nonzero"/></clipPath><clipPath id="8e4943edcd"><path d="M 0.902344 48.863281 L 1410.871094 48.863281 L 1410.871094 824.992188 L 0.902344 824.992188 Z M 0.902344 48.863281 " clip-rule="nonzero"/></clipPath><clipPath id="e2a2bf2472"><path d="M 1 0.863281 L 1410.574219 0.863281 L 1410.574219 776.992188 L 1 776.992188 Z M 1 0.863281 " clip-rule="nonzero"/></clipPath><clipPath id="af12a019db"><rect x="0" width="1411" y="0" height="777"/></clipPath><clipPath id="0b4b0028c7"><path d="M 969 537 L 1666.550781 537 L 1666.550781 703 L 969 703 Z M 969 537 " clip-rule="nonzero"/></clipPath><clipPath id="3a4fa51554"><rect x="0" width="698" y="0" height="166"/></clipPath><clipPath id="d3ada7b4ce"><path d="M 85 0.300781 L 828 0.300781 L 828 835.695312 L 85 835.695312 Z M 85 0.300781 " clip-rule="nonzero"/></clipPath><clipPath id="796bab714d"><rect x="0" width="743" y="0" height="836"/></clipPath><clipPath id="e2fb635af3"><rect x="0" width="1667" y="0" height="836"/></clipPath><clipPath id="794959c606"><rect x="0" width="1667" y="0" height="836"/></clipPath></defs><g transform="matrix(1, 0, 0, 1, 8, 158)"><g clip-path="url(#794959c606)"><g clip-path="url(#a852c93539)"><g transform="matrix(1, 0, 0, 1, 0, 0.000000000000028422)"><g clip-path="url(#e2fb635af3)"><g clip-path="url(#8e4943edcd)"><g transform="matrix(1, 0, 0, 1, 0, 48)"><g clip-path="url(#af12a019db)"><g clip-path="url(#e2a2bf2472)"><path fill="#ffffff" d="M 1165.488281 428.519531 C 1174.089844 431.027344 1182.933594 432.941406 1191.949219 434.222656 C 1200.839844 435.484375 1209.886719 436.136719 1219.039062 436.136719 C 1271.84375 436.136719 1319.664062 414.730469 1354.269531 380.125 C 1388.878906 345.519531 1410.28125 297.710938 1410.28125 244.894531 C 1410.28125 192.085938 1388.878906 144.265625 1354.269531 109.660156 C 1319.664062 75.054688 1271.84375 53.648438 1219.039062 53.648438 C 1189.6875 53.648438 1161.867188 60.277344 1136.984375 72.105469 C 1111.152344 84.394531 1088.511719 102.3125 1070.636719 124.269531 C 1016.527344 189.835938 972.445312 258.644531 928.394531 327.410156 C 837.628906 469.089844 746.972656 610.570312 569.808594 721.097656 C 553.625 729.921875 536.722656 737.597656 519.210938 744.011719 C 478.648438 758.878906 434.8125 766.992188 389.0625 766.992188 C 284.613281 766.992188 190.054688 724.652344 121.617188 656.214844 C 53.167969 587.765625 10.839844 493.207031 10.839844 388.769531 C 10.839844 284.316406 53.179688 189.757812 121.617188 121.320312 C 186.363281 56.574219 274.460938 15.203125 372.203125 10.914062 C 364.519531 16.472656 359.511719 25.523438 359.511719 35.742188 C 359.511719 52.65625 373.21875 66.363281 390.132812 66.363281 C 407.046875 66.363281 420.757812 52.65625 420.757812 35.742188 C 420.757812 21.019531 410.355469 8.71875 396.515625 5.78125 L 396.59375 0.976562 L 389.085938 0.886719 C 281.980469 0.886719 185 44.304688 114.808594 114.5 C 44.613281 184.691406 1.195312 281.660156 1.195312 388.78125 C 1.195312 495.886719 44.613281 592.867188 114.808594 663.058594 C 185 733.253906 281.96875 776.671875 389.085938 776.671875 C 435.960938 776.671875 480.921875 768.34375 522.550781 753.09375 C 565.691406 737.28125 605.25 714.03125 639.652344 684.882812 C 777.328125 581.09375 856.875 456.945312 936.519531 332.644531 C 980.457031 264.070312 1024.417969 195.441406 1078.101562 130.390625 L 1074.386719 127.339844 L 1078.121094 130.378906 C 1095.082031 109.535156 1116.578125 92.53125 1141.113281 80.859375 C 1164.714844 69.628906 1191.148438 63.335938 1219.058594 63.335938 C 1269.210938 63.335938 1314.609375 83.664062 1347.472656 116.527344 C 1380.335938 149.386719 1400.660156 194.789062 1400.660156 244.9375 C 1400.660156 295.085938 1380.335938 340.488281 1347.472656 373.351562 C 1314.609375 406.210938 1269.210938 426.539062 1219.058594 426.539062 C 1210.257812 426.539062 1201.660156 425.917969 1193.300781 424.738281 C 1184.699219 423.523438 1176.316406 421.699219 1168.203125 419.335938 L 1165.523438 428.574219 Z M 1165.488281 428.519531 " fill-opacity="1" fill-rule="nonzero"/></g></g></g></g><g clip-path="url(#0b4b0028c7)"><g transform="matrix(1, 0, 0, 1, 969, 537)"><g clip-path="url(#3a4fa51554)"><g fill="#ffffff" fill-opacity="1"><g transform="translate(0.861694, 58.285813)"><g><path d="M 47.578125 -3.78125 L 47.90625 -10.765625 L 46.515625 -35.15625 L 31.4375 0 L 28.96875 0 L 13.890625 -35.21875 L 12.6875 -10.765625 C 12.6875 -9.921875 12.734375 -8.484375 12.828125 -6.453125 L 13.03125 -3.78125 L 18.203125 -3.390625 L 17.8125 0.265625 L 14.890625 0.140625 C 12.492188 0.046875 10.550781 0 9.0625 0 C 7.582031 0 6 0.046875 4.3125 0.140625 L 2.1875 0.265625 L 1.859375 -3.1875 L 6.984375 -3.78125 C 7.023438 -3.914062 7.097656 -4.226562 7.203125 -4.71875 C 7.316406 -5.207031 7.414062 -5.59375 7.5 -5.875 C 7.59375 -6.164062 7.707031 -6.65625 7.84375 -7.34375 C 7.976562 -8.03125 8.085938 -8.503906 8.171875 -8.765625 L 9.90625 -37.8125 C 9.90625 -38.476562 9.800781 -39.375 9.59375 -40.5 C 9.394531 -41.632812 9.273438 -42.507812 9.234375 -43.125 L 4.1875 -43.65625 L 4.515625 -47.375 L 7.640625 -47.109375 C 9.234375 -46.929688 10.601562 -46.84375 11.75 -46.84375 C 12.90625 -46.84375 14.148438 -46.890625 15.484375 -46.984375 L 17.21875 -47.109375 L 17.609375 -46.71875 L 19.140625 -41.265625 C 20.285156 -37.191406 20.925781 -34.976562 21.0625 -34.625 L 31.5 -9.5625 L 42.0625 -35.6875 C 42.332031 -36.300781 42.921875 -38.09375 43.828125 -41.0625 C 44.734375 -44.03125 45.296875 -45.914062 45.515625 -46.71875 L 45.921875 -47.109375 L 47.109375 -46.984375 C 48.085938 -46.890625 49.160156 -46.84375 50.328125 -46.84375 C 51.503906 -46.84375 52.828125 -46.929688 54.296875 -47.109375 L 57.28125 -47.375 L 57.6875 -43.453125 L 52.5 -43.0625 L 52.296875 -40.9375 C 52.160156 -40.1875 52.09375 -39.144531 52.09375 -37.8125 L 54.359375 -8.765625 C 54.398438 -8.410156 54.539062 -7.769531 54.78125 -6.84375 C 55.03125 -5.914062 55.207031 -5.207031 55.3125 -4.71875 C 55.425781 -4.226562 55.507812 -3.914062 55.5625 -3.78125 L 60.671875 -3.1875 L 60.34375 0.265625 L 58.140625 0.140625 C 56.460938 0.046875 54.859375 0 53.328125 0 C 51.796875 0 49.570312 0.046875 46.65625 0.140625 L 42.796875 0.265625 L 42.390625 -3.390625 Z M 47.578125 -3.78125 "/></g></g></g><g fill="#ffffff" fill-opacity="1"><g transform="translate(110.689575, 58.285813)"><g><path d="M 24.78125 -47.84375 C 31.832031 -47.84375 37.226562 -45.628906 40.96875 -41.203125 C 44.707031 -36.773438 46.578125 -30.847656 46.578125 -23.421875 C 46.578125 -16.003906 44.707031 -10.078125 40.96875 -5.640625 C 37.226562 -1.210938 31.832031 1 24.78125 1 C 17.738281 1 12.34375 -1.210938 8.59375 -5.640625 C 4.851562 -10.078125 2.984375 -16.003906 2.984375 -23.421875 C 2.984375 -30.847656 4.851562 -36.773438 8.59375 -41.203125 C 12.34375 -45.628906 17.738281 -47.84375 24.78125 -47.84375 Z M 13.875 -38.4375 C 11.351562 -34.519531 10.09375 -29.503906 10.09375 -23.390625 C 10.09375 -17.273438 11.351562 -12.269531 13.875 -8.375 C 16.40625 -4.476562 20.039062 -2.53125 24.78125 -2.53125 C 29.519531 -2.53125 33.148438 -4.476562 35.671875 -8.375 C 38.203125 -12.269531 39.46875 -17.273438 39.46875 -23.390625 C 39.46875 -29.503906 38.203125 -34.519531 35.671875 -38.4375 C 33.148438 -42.363281 29.519531 -44.328125 24.78125 -44.328125 C 20.039062 -44.328125 16.40625 -42.363281 13.875 -38.4375 Z M 13.875 -38.4375 "/></g></g></g><g fill="#ffffff" fill-opacity="1"><g transform="translate(207.563633, 58.285813)"><g><path d="M 21.859375 -25.125 L 35.953125 -25.390625 L 35.953125 -37.75 C 35.953125 -38.414062 35.851562 -39.3125 35.65625 -40.4375 C 35.457031 -41.5625 35.332031 -42.4375 35.28125 -43.0625 L 30.171875 -43.59375 L 30.5 -47.1875 L 32.625 -46.984375 C 34.3125 -46.890625 36.140625 -46.84375 38.109375 -46.84375 C 40.078125 -46.84375 41.972656 -46.929688 43.796875 -47.109375 L 47.375 -47.375 L 47.78125 -43.453125 L 42.59375 -43.0625 L 42.328125 -40.671875 C 42.191406 -39.742188 42.125 -38.101562 42.125 -35.75 L 42.125 -11.09375 C 42.125 -8.75 42.191406 -7.113281 42.328125 -6.1875 L 42.59375 -3.78125 L 47.78125 -3.390625 L 47.375 0.265625 L 43.796875 0.140625 C 41.046875 0.046875 38.914062 0 37.40625 0 C 35.90625 0 34.3125 0.046875 32.625 0.140625 L 30.5 0.265625 L 30.171875 -3.390625 L 35.28125 -3.78125 C 35.332031 -4.1875 35.457031 -4.953125 35.65625 -6.078125 C 35.851562 -7.210938 35.953125 -8.222656 35.953125 -9.109375 L 35.953125 -21.796875 L 13.890625 -21.59375 L 13.890625 -11.09375 C 13.890625 -8.75 13.957031 -7.113281 14.09375 -6.1875 L 14.359375 -3.78125 L 19.53125 -3.390625 L 19.140625 0.265625 L 15.953125 0.140625 C 13.472656 0.046875 11.390625 0 9.703125 0 C 8.015625 0 6.394531 0.109375 4.84375 0.328125 L 2.453125 0.59375 L 2 -3.1875 L 7.109375 -3.78125 C 7.148438 -4.1875 7.269531 -4.953125 7.46875 -6.078125 C 7.675781 -7.210938 7.78125 -8.222656 7.78125 -9.109375 L 7.78125 -37.75 C 7.78125 -38.414062 7.675781 -39.3125 7.46875 -40.4375 C 7.269531 -41.5625 7.148438 -42.4375 7.109375 -43.0625 L 2 -43.859375 L 2.328125 -47.1875 L 4.453125 -46.984375 C 6.140625 -46.890625 7.96875 -46.84375 9.9375 -46.84375 C 11.90625 -46.84375 13.796875 -46.929688 15.609375 -47.109375 L 19.140625 -47.375 L 19.53125 -43.453125 L 14.359375 -43.0625 L 14.09375 -40.671875 C 13.957031 -39.742188 13.890625 -38.101562 13.890625 -35.75 L 13.890625 -25.390625 C 14.992188 -25.210938 17.648438 -25.125 21.859375 -25.125 Z M 21.859375 -25.125 "/></g></g></g><g fill="#ffffff" fill-opacity="1"><g transform="translate(304.637012, 58.285813)"><g><path d="M 20.734375 -46.84375 L 24.328125 -47.578125 L 31.625 -28.578125 C 32.695312 -25.867188 33.851562 -22.851562 35.09375 -19.53125 C 37.75 -12.53125 39.164062 -8.851562 39.34375 -8.5 C 39.695312 -7.4375 40.535156 -5.800781 41.859375 -3.59375 L 45.25 -3.25 L 45.0625 0.265625 L 40.46875 0.140625 C 37.1875 0.046875 35.125 0 34.28125 0 C 33.445312 0 32.453125 0.046875 31.296875 0.140625 L 29.703125 0.265625 L 29.375 -3.25 L 34.09375 -3.71875 C 33.78125 -5.894531 33.445312 -7.515625 33.09375 -8.578125 L 30.4375 -15.484375 L 13.890625 -15.28125 L 11.171875 -7.640625 C 10.859375 -6.265625 10.613281 -4.976562 10.4375 -3.78125 L 10.5 -3.78125 L 15.6875 -3.25 L 15.28125 0.265625 L 11.171875 0.140625 C 8.066406 0.046875 5.96875 0 4.875 0 C 3.789062 0 2.765625 0.046875 1.796875 0.140625 L 0.53125 0.265625 L 0.328125 -3.1875 L 4.125 -3.71875 C 6.5625 -8.195312 7.800781 -10.523438 7.84375 -10.703125 Z M 15.15625 -18.875 C 17.539062 -18.78125 19.242188 -18.734375 20.265625 -18.734375 C 21.285156 -18.734375 22.78125 -18.765625 24.75 -18.828125 C 26.726562 -18.898438 28.179688 -18.9375 29.109375 -18.9375 L 21.859375 -37.8125 Z M 15.15625 -18.875 "/></g></g></g><g fill="#ffffff" fill-opacity="1"><g transform="translate(397.525328, 58.285813)"><g><path d="M 47.578125 -3.78125 L 47.90625 -10.765625 L 46.515625 -35.15625 L 31.4375 0 L 28.96875 0 L 13.890625 -35.21875 L 12.6875 -10.765625 C 12.6875 -9.921875 12.734375 -8.484375 12.828125 -6.453125 L 13.03125 -3.78125 L 18.203125 -3.390625 L 17.8125 0.265625 L 14.890625 0.140625 C 12.492188 0.046875 10.550781 0 9.0625 0 C 7.582031 0 6 0.046875 4.3125 0.140625 L 2.1875 0.265625 L 1.859375 -3.1875 L 6.984375 -3.78125 C 7.023438 -3.914062 7.097656 -4.226562 7.203125 -4.71875 C 7.316406 -5.207031 7.414062 -5.59375 7.5 -5.875 C 7.59375 -6.164062 7.707031 -6.65625 7.84375 -7.34375 C 7.976562 -8.03125 8.085938 -8.503906 8.171875 -8.765625 L 9.90625 -37.8125 C 9.90625 -38.476562 9.800781 -39.375 9.59375 -40.5 C 9.394531 -41.632812 9.273438 -42.507812 9.234375 -43.125 L 4.1875 -43.65625 L 4.515625 -47.375 L 7.640625 -47.109375 C 9.234375 -46.929688 10.601562 -46.84375 11.75 -46.84375 C 12.90625 -46.84375 14.148438 -46.890625 15.484375 -46.984375 L 17.21875 -47.109375 L 17.609375 -46.71875 L 19.140625 -41.265625 C 20.285156 -37.191406 20.925781 -34.976562 21.0625 -34.625 L 31.5 -9.5625 L 42.0625 -35.6875 C 42.332031 -36.300781 42.921875 -38.09375 43.828125 -41.0625 C 44.734375 -44.03125 45.296875 -45.914062 45.515625 -46.71875 L 45.921875 -47.109375 L 47.109375 -46.984375 C 48.085938 -46.890625 49.160156 -46.84375 50.328125 -46.84375 C 51.503906 -46.84375 52.828125 -46.929688 54.296875 -47.109375 L 57.28125 -47.375 L 57.6875 -43.453125 L 52.5 -43.0625 L 52.296875 -40.9375 C 52.160156 -40.1875 52.09375 -39.144531 52.09375 -37.8125 L 54.359375 -8.765625 C 54.398438 -8.410156 54.539062 -7.769531 54.78125 -6.84375 C 55.03125 -5.914062 55.207031 -5.207031 55.3125 -4.71875 C 55.425781 -4.226562 55.507812 -3.914062 55.5625 -3.78125 L 60.671875 -3.1875 L 60.34375 0.265625 L 58.140625 0.140625 C 56.460938 0.046875 54.859375 0 53.328125 0 C 51.796875 0 49.570312 0.046875 46.65625 0.140625 L 42.796875 0.265625 L 42.390625 -3.390625 Z M 47.578125 -3.78125 "/></g></g></g><g fill="#ffffff" fill-opacity="1"><g transform="translate(507.353209, 58.285813)"><g><path d="M 20.734375 -46.84375 L 24.328125 -47.578125 L 31.625 -28.578125 C 32.695312 -25.867188 33.851562 -22.851562 35.09375 -19.53125 C 37.75 -12.53125 39.164062 -8.851562 39.34375 -8.5 C 39.695312 -7.4375 40.535156 -5.800781 41.859375 -3.59375 L 45.25 -3.25 L 45.0625 0.265625 L 40.46875 0.140625 C 37.1875 0.046875 35.125 0 34.28125 0 C 33.445312 0 32.453125 0.046875 31.296875 0.140625 L 29.703125 0.265625 L 29.375 -3.25 L 34.09375 -3.71875 C 33.78125 -5.894531 33.445312 -7.515625 33.09375 -8.578125 L 30.4375 -15.484375 L 13.890625 -15.28125 L 11.171875 -7.640625 C 10.859375 -6.265625 10.613281 -4.976562 10.4375 -3.78125 L 10.5 -3.78125 L 15.6875 -3.25 L 15.28125 0.265625 L 11.171875 0.140625 C 8.066406 0.046875 5.96875 0 4.875 0 C 3.789062 0 2.765625 0.046875 1.796875 0.140625 L 0.53125 0.265625 L 0.328125 -3.1875 L 4.125 -3.71875 C 6.5625 -8.195312 7.800781 -10.523438 7.84375 -10.703125 Z M 15.15625 -18.875 C 17.539062 -18.78125 19.242188 -18.734375 20.265625 -18.734375 C 21.285156 -18.734375 22.78125 -18.765625 24.75 -18.828125 C 26.726562 -18.898438 28.179688 -18.9375 29.109375 -18.9375 L 21.859375 -37.8125 Z M 15.15625 -18.875 "/></g></g></g><g fill="#ffffff" fill-opacity="1"><g transform="translate(600.241525, 58.285813)"><g><path d="M 21.328125 0.734375 L 7.90625 0.0625 C 6.175781 0.15625 4.957031 0.269531 4.25 0.40625 L 2.453125 0.59375 L 2 -3.1875 L 7.109375 -3.78125 C 7.148438 -4.1875 7.269531 -4.953125 7.46875 -6.078125 C 7.675781 -7.210938 7.78125 -8.222656 7.78125 -9.109375 L 7.78125 -37.75 C 7.78125 -38.414062 7.675781 -39.3125 7.46875 -40.4375 C 7.269531 -41.5625 7.148438 -42.4375 7.109375 -43.0625 L 2 -43.859375 L 2.328125 -47.1875 L 4.453125 -46.984375 C 6.140625 -46.890625 7.535156 -46.84375 8.640625 -46.84375 L 8.90625 -46.84375 C 10.1875 -46.84375 12.175781 -46.953125 14.875 -47.171875 C 17.582031 -47.398438 19.734375 -47.515625 21.328125 -47.515625 C 28.640625 -47.515625 34.289062 -45.363281 38.28125 -41.0625 C 42.269531 -36.769531 44.265625 -30.9375 44.265625 -23.5625 C 44.265625 -16.1875 42.210938 -10.289062 38.109375 -5.875 C 34.015625 -1.46875 28.421875 0.734375 21.328125 0.734375 Z M 13.890625 -11.09375 L 14.28125 -3.515625 C 15.882812 -3.335938 18.253906 -3.25 21.390625 -3.25 C 26.710938 -3.25 30.753906 -5.128906 33.515625 -8.890625 C 36.285156 -12.660156 37.671875 -17.492188 37.671875 -23.390625 C 37.671875 -29.285156 36.285156 -34.113281 33.515625 -37.875 C 30.753906 -41.644531 26.710938 -43.53125 21.390625 -43.53125 C 18.515625 -43.53125 16.144531 -43.414062 14.28125 -43.1875 C 14.019531 -41.507812 13.890625 -39.03125 13.890625 -35.75 Z M 13.890625 -11.09375 "/></g></g></g><g fill="#ffffff" fill-opacity="1"><g transform="translate(0.861694, 147.603456)"><g><path d="M 23.1875 -17.484375 C 21.726562 -18.585938 20.066406 -19.601562 18.203125 -20.53125 L 15.21875 -22.0625 C 15.082031 -22.101562 14.945312 -22.148438 14.8125 -22.203125 C 11.1875 -23.972656 8.375 -25.84375 6.375 -27.8125 C 4.382812 -29.78125 3.390625 -32.523438 3.390625 -36.046875 C 3.390625 -39.566406 4.726562 -42.410156 7.40625 -44.578125 C 10.09375 -46.753906 13.316406 -47.84375 17.078125 -47.84375 C 20.847656 -47.84375 25.566406 -47.132812 31.234375 -45.71875 L 30.296875 -35.953125 L 26.375 -36.34375 L 26.375 -39.015625 C 26.375 -39.453125 26.066406 -40.691406 25.453125 -42.734375 C 23.097656 -43.703125 20.660156 -44.1875 18.140625 -44.1875 C 15.617188 -44.1875 13.632812 -43.546875 12.1875 -42.265625 C 10.75 -40.984375 10.03125 -39.164062 10.03125 -36.8125 C 10.03125 -34.507812 11.140625 -32.515625 13.359375 -30.828125 C 14.910156 -29.722656 16.5625 -28.738281 18.3125 -27.875 C 20.0625 -27.007812 20.976562 -26.554688 21.0625 -26.515625 C 23.144531 -25.453125 24.785156 -24.539062 25.984375 -23.78125 C 27.179688 -23.03125 28.421875 -22.101562 29.703125 -21 C 32.234375 -18.738281 33.5 -15.625 33.5 -11.65625 C 33.5 -7.695312 32.015625 -4.597656 29.046875 -2.359375 C 26.078125 -0.117188 22.519531 1 18.375 1 C 14.226562 1 10.429688 0.421875 6.984375 -0.734375 C 5.515625 -1.222656 4.179688 -1.820312 2.984375 -2.53125 L 3.984375 -12.765625 L 8.375 -12.359375 L 8.375 -9.171875 C 8.375 -8.503906 8.617188 -7.039062 9.109375 -4.78125 C 11.898438 -3.582031 14.710938 -2.984375 17.546875 -2.984375 C 20.378906 -2.984375 22.582031 -3.703125 24.15625 -5.140625 C 25.726562 -6.585938 26.515625 -8.582031 26.515625 -11.125 C 26.515625 -13.675781 25.40625 -15.796875 23.1875 -17.484375 Z M 23.1875 -17.484375 "/></g></g></g><g fill="#ffffff" fill-opacity="1"><g transform="translate(84.649114, 147.603456)"><g><path d="M 12.234375 -3.1875 L 17.34375 -3.78125 C 17.382812 -4.1875 17.503906 -4.953125 17.703125 -6.078125 C 17.910156 -7.210938 18.015625 -8.222656 18.015625 -9.109375 L 18.015625 -17.9375 L 7.90625 -37.140625 C 6.800781 -38.609375 5.160156 -40.5625 2.984375 -43 L 0.328125 -43.265625 L 0.59375 -47.1875 L 3.25 -46.984375 C 5.289062 -46.890625 7.1875 -46.84375 8.9375 -46.84375 C 10.6875 -46.84375 12.378906 -46.910156 14.015625 -47.046875 L 16.609375 -47.3125 L 16.75 -43.125 L 12.5625 -42.734375 C 14.15625 -38.296875 15.148438 -35.703125 15.546875 -34.953125 L 21.65625 -23 L 29.5 -38.40625 C 29.726562 -38.851562 30.257812 -40.359375 31.09375 -42.921875 L 26.84375 -43.453125 L 27.171875 -47.25 L 29.5 -47.046875 C 30.34375 -46.910156 31.859375 -46.84375 34.046875 -46.84375 C 36.242188 -46.84375 38.1875 -46.910156 39.875 -47.046875 L 42.46875 -47.3125 L 42.53125 -43.265625 L 38.015625 -42.65625 L 32.953125 -36.28125 L 24.1875 -19.40625 L 24.1875 -11.09375 C 24.1875 -8.75 24.253906 -7.113281 24.390625 -6.1875 L 24.65625 -3.78125 L 29.84375 -3.390625 L 29.4375 0.265625 L 25.921875 0.140625 C 23.171875 0.046875 21.03125 0 19.5 0 C 17.976562 0 16.375 0.046875 14.6875 0.140625 L 12.5625 0.265625 Z M 12.234375 -3.1875 "/></g></g></g><g fill="#ffffff" fill-opacity="1"><g transform="translate(174.813787, 147.603456)"><g><path d="M 20.734375 -46.84375 L 24.328125 -47.578125 L 31.625 -28.578125 C 32.695312 -25.867188 33.851562 -22.851562 35.09375 -19.53125 C 37.75 -12.53125 39.164062 -8.851562 39.34375 -8.5 C 39.695312 -7.4375 40.535156 -5.800781 41.859375 -3.59375 L 45.25 -3.25 L 45.0625 0.265625 L 40.46875 0.140625 C 37.1875 0.046875 35.125 0 34.28125 0 C 33.445312 0 32.453125 0.046875 31.296875 0.140625 L 29.703125 0.265625 L 29.375 -3.25 L 34.09375 -3.71875 C 33.78125 -5.894531 33.445312 -7.515625 33.09375 -8.578125 L 30.4375 -15.484375 L 13.890625 -15.28125 L 11.171875 -7.640625 C 10.859375 -6.265625 10.613281 -4.976562 10.4375 -3.78125 L 10.5 -3.78125 L 15.6875 -3.25 L 15.28125 0.265625 L 11.171875 0.140625 C 8.066406 0.046875 5.96875 0 4.875 0 C 3.789062 0 2.765625 0.046875 1.796875 0.140625 L 0.53125 0.265625 L 0.328125 -3.1875 L 4.125 -3.71875 C 6.5625 -8.195312 7.800781 -10.523438 7.84375 -10.703125 Z M 15.15625 -18.875 C 17.539062 -18.78125 19.242188 -18.734375 20.265625 -18.734375 C 21.285156 -18.734375 22.78125 -18.765625 24.75 -18.828125 C 26.726562 -18.898438 28.179688 -18.9375 29.109375 -18.9375 L 21.859375 -37.8125 Z M 15.15625 -18.875 "/></g></g></g><g fill="#ffffff" fill-opacity="1"><g transform="translate(267.702104, 147.603456)"><g><path d="M 14.484375 -23.453125 L 26.578125 -38.34375 L 29.3125 -43.125 L 25.71875 -43.65625 L 26.046875 -47.1875 L 28.046875 -46.984375 C 29.546875 -46.890625 31.25 -46.84375 33.15625 -46.84375 C 35.0625 -46.84375 36.8125 -46.929688 38.40625 -47.109375 L 41.40625 -47.375 L 41.796875 -43.453125 L 36.875 -43.0625 C 35.457031 -41.820312 33.113281 -39.5625 29.84375 -36.28125 L 21 -24.59375 C 21.707031 -23.789062 23.710938 -21.441406 27.015625 -17.546875 C 30.316406 -13.648438 32.894531 -10.660156 34.75 -8.578125 C 36.789062 -6.535156 38.609375 -4.914062 40.203125 -3.71875 L 44.859375 -3.390625 L 44.453125 0.265625 L 40.9375 0.140625 C 38.1875 0.046875 36.066406 0 34.578125 0 C 33.097656 0 31.519531 0.046875 29.84375 0.140625 L 27.71875 0.265625 L 27.375 -3.1875 L 30.375 -3.515625 C 28.414062 -6.796875 26.796875 -9.253906 25.515625 -10.890625 C 24.941406 -11.472656 23.957031 -12.570312 22.5625 -14.1875 C 21.164062 -15.800781 20.132812 -16.988281 19.46875 -17.75 Z M 7.78125 -9.109375 L 7.78125 -37.75 C 7.78125 -38.414062 7.675781 -39.3125 7.46875 -40.4375 C 7.269531 -41.5625 7.148438 -42.4375 7.109375 -43.0625 L 2 -43.65625 L 2.328125 -47.1875 L 4.453125 -46.984375 C 6.140625 -46.890625 7.957031 -46.84375 9.90625 -46.84375 C 11.851562 -46.84375 13.734375 -46.929688 15.546875 -47.109375 L 19.078125 -47.375 L 19.46875 -43.453125 L 14.28125 -43.0625 L 14.015625 -40.671875 C 13.890625 -39.742188 13.828125 -38.101562 13.828125 -35.75 L 13.828125 -11.09375 C 13.828125 -8.75 13.890625 -7.113281 14.015625 -6.1875 L 14.28125 -3.78125 L 19.46875 -3.390625 L 19.078125 0.265625 L 15.546875 0.140625 C 12.804688 0.046875 10.691406 0 9.203125 0 C 7.722656 0 6.140625 0.046875 4.453125 0.140625 L 2.328125 0.265625 L 2 -3.1875 L 7.109375 -3.78125 C 7.148438 -4.1875 7.269531 -4.953125 7.46875 -6.078125 C 7.675781 -7.210938 7.78125 -8.222656 7.78125 -9.109375 Z M 7.78125 -9.109375 "/></g></g></g><g fill="#ffffff" fill-opacity="1"><g transform="translate(360.191849, 147.603456)"><g><path d="M 8.4375 -9.109375 L 8.4375 -37.75 C 8.4375 -38.414062 8.335938 -39.3125 8.140625 -40.4375 C 7.941406 -41.5625 7.820312 -42.4375 7.78125 -43.0625 L 2.65625 -43.65625 L 2.984375 -47.1875 L 5.109375 -46.984375 C 6.796875 -46.890625 8.613281 -46.84375 10.5625 -46.84375 C 12.507812 -46.84375 14.394531 -46.929688 16.21875 -47.109375 L 19.734375 -47.375 L 20.140625 -43.453125 L 14.953125 -43.0625 L 14.6875 -40.671875 C 14.550781 -39.742188 14.484375 -38.101562 14.484375 -35.75 L 14.484375 -11.09375 C 14.484375 -8.75 14.550781 -7.113281 14.6875 -6.1875 L 14.953125 -3.78125 L 20.140625 -3.390625 L 19.734375 0.265625 L 16.21875 0.140625 C 13.46875 0.046875 11.347656 0 9.859375 0 C 8.378906 0 6.796875 0.046875 5.109375 0.140625 L 2.984375 0.265625 L 2.65625 -3.1875 L 7.78125 -3.78125 C 7.820312 -4.1875 7.941406 -4.953125 8.140625 -6.078125 C 8.335938 -7.210938 8.4375 -8.222656 8.4375 -9.109375 Z M 8.4375 -9.109375 "/></g></g></g><g fill="#ffffff" fill-opacity="1"><g transform="translate(430.294736, 147.603456)"><g><path d="M 9.03125 -46.84375 L 21.265625 -47.515625 C 25.867188 -47.515625 29.457031 -46.394531 32.03125 -44.15625 C 34.601562 -41.914062 35.890625 -38.648438 35.890625 -34.359375 C 35.890625 -31.296875 34.96875 -28.703125 33.125 -26.578125 C 31.289062 -24.453125 28.863281 -22.945312 25.84375 -22.0625 C 29.34375 -15.101562 31.691406 -10.648438 32.890625 -8.703125 C 32.890625 -8.660156 34 -7.066406 36.21875 -3.921875 L 40.671875 -3.1875 L 40.40625 0.265625 L 37.9375 0.140625 C 36.082031 0.046875 34.8125 0 34.125 0 C 33.4375 0 32.296875 0.0859375 30.703125 0.265625 L 30.296875 0 C 28.523438 -4.03125 27.304688 -6.597656 26.640625 -7.703125 L 19.734375 -21.265625 C 17.078125 -21.265625 15.128906 -21.285156 13.890625 -21.328125 L 13.890625 -11.09375 C 13.890625 -8.789062 13.957031 -7.175781 14.09375 -6.25 L 14.359375 -3.859375 L 18.875 -3.390625 L 18.46875 0.265625 L 15.953125 0.140625 C 13.910156 0.046875 12.023438 0 10.296875 0 C 8.566406 0 6.863281 0.109375 5.1875 0.328125 L 2.453125 0.59375 L 2 -3.1875 L 7.109375 -3.78125 C 7.148438 -4.1875 7.269531 -4.953125 7.46875 -6.078125 C 7.675781 -7.210938 7.78125 -8.222656 7.78125 -9.109375 L 7.78125 -37.75 C 7.78125 -38.414062 7.675781 -39.3125 7.46875 -40.4375 C 7.269531 -41.5625 7.148438 -42.4375 7.109375 -43.0625 L 2 -43.859375 L 2.328125 -47.1875 L 4.453125 -46.984375 C 6.140625 -46.890625 7.535156 -46.84375 8.640625 -46.84375 Z M 18.40625 -24.65625 C 21.820312 -24.65625 24.515625 -25.484375 26.484375 -27.140625 C 28.453125 -28.804688 29.4375 -31.234375 29.4375 -34.421875 C 29.4375 -37.609375 28.460938 -40.03125 26.515625 -41.6875 C 24.566406 -43.351562 21.882812 -44.1875 18.46875 -44.1875 C 17.5 -44.1875 16.128906 -44.078125 14.359375 -43.859375 L 14.359375 -43.71875 L 14.09375 -41 C 13.957031 -39.9375 13.890625 -38.1875 13.890625 -35.75 L 13.890625 -24.859375 C 14.992188 -24.722656 16.5 -24.65625 18.40625 -24.65625 Z M 18.40625 -24.65625 "/></g></g></g></g></g></g><g clip-path="url(#d3ada7b4ce)"><g transform="matrix(1, 0, 0, 1, 85, 0.000000000000028422)"><g clip-path="url(#796bab714d)"><g fill="#ffffff" fill-opacity="1"><g transform="translate(47.924291, 603.268477)"><g><path d="M 680.734375 100.25 C 683.203125 100.25 685.675781 100.25 688.15625 100.25 L 688.15625 106.4375 C 676.601562 108.09375 663.707031 108.921875 649.46875 108.921875 C 635.238281 108.921875 617.707031 105.820312 596.875 99.625 C 576.039062 93.4375 557.164062 81.890625 540.25 64.984375 C 505.59375 30.328125 484.550781 -14.640625 477.125 -69.921875 L 439.375 -345.3125 L 310.65625 -54.453125 C 299.101562 -29.285156 292.09375 -8.25 289.625 8.65625 L 283.4375 8.65625 L 123.15625 -339.75 L 95.921875 -32.1875 C 95.097656 -25.164062 97.265625 -18.972656 102.421875 -13.609375 C 107.578125 -8.242188 113.25 -5.5625 119.4375 -5.5625 L 129.34375 -5.5625 L 129.34375 0 L 9.28125 0 L 9.28125 -6.1875 L 19.1875 -6.1875 C 30.320312 -6.1875 40.117188 -9.585938 48.578125 -16.390625 C 57.035156 -23.203125 62.296875 -32.175781 64.359375 -43.3125 L 103.34375 -381.203125 C 67.039062 -452.578125 23.515625 -488.265625 -27.234375 -488.265625 C -31.765625 -488.265625 -36.507812 -488.0625 -41.46875 -487.65625 L -41.46875 -493.84375 C -30.320312 -496.726562 -21.242188 -498.171875 -14.234375 -498.171875 C -7.222656 -498.171875 0.40625 -497.859375 8.65625 -497.234375 C 16.914062 -496.617188 26.613281 -494.660156 37.75 -491.359375 C 48.882812 -488.054688 59.398438 -483.207031 69.296875 -476.8125 C 79.203125 -470.425781 87.867188 -463.828125 95.296875 -457.015625 C 102.722656 -450.210938 109.738281 -442.679688 116.34375 -434.421875 C 127.476562 -419.578125 136.347656 -405.347656 142.953125 -391.734375 L 292.09375 -68.6875 L 458.5625 -441.859375 L 464.140625 -441.859375 L 521.6875 -75.5 C 530.351562 -17.738281 549.019531 25.988281 577.6875 55.6875 C 606.363281 85.394531 640.710938 100.25 680.734375 100.25 Z M 680.734375 100.25 "/></g></g></g></g></g></g></g></g></g></g></g></svg>