<svg xmlns="http://www.w3.org/2000/svg" xmlns:xlink="http://www.w3.org/1999/xlink" width="2245" zoomAndPan="magnify" viewBox="0 0 1683.75 1190.250009" height="1587" preserveAspectRatio="xMidYMid meet" version="1.0"><defs><g/><clipPath id="9746c331cf"><path d="M 0.0820312 0.300781 L 1661.511719 0.300781 L 1661.511719 835.695312 L 0.0820312 835.695312 Z M 0.0820312 0.300781 " clip-rule="nonzero"/></clipPath><clipPath id="c0a47fba71"><path d="M 0.902344 48.863281 L 1410.871094 48.863281 L 1410.871094 824.992188 L 0.902344 824.992188 Z M 0.902344 48.863281 " clip-rule="nonzero"/></clipPath><clipPath id="3e475b7a0d"><path d="M 1 0.863281 L 1410.574219 0.863281 L 1410.574219 776.992188 L 1 776.992188 Z M 1 0.863281 " clip-rule="nonzero"/></clipPath><clipPath id="b216aba7b0"><rect x="0" width="1411" y="0" height="777"/></clipPath><clipPath id="5bed6f12a1"><path d="M 969 539 L 1661.511719 539 L 1661.511719 736 L 969 736 Z M 969 539 " clip-rule="nonzero"/></clipPath><clipPath id="c6af6b76e3"><path d="M 0.789062 18 L 84 18 L 84 87 L 0.789062 87 Z M 0.789062 18 " clip-rule="nonzero"/></clipPath><clipPath id="28989527eb"><rect x="0" width="693" y="0" height="197"/></clipPath><clipPath id="f8ab89c211"><path d="M 85 0.300781 L 828 0.300781 L 828 835.695312 L 85 835.695312 Z M 85 0.300781 " clip-rule="nonzero"/></clipPath><clipPath id="e97a4b6779"><rect x="0" width="743" y="0" height="836"/></clipPath><clipPath id="0f08578596"><rect x="0" width="1662" y="0" height="836"/></clipPath><clipPath id="0e7d886542"><rect x="0" width="1662" y="0" height="836"/></clipPath></defs><g transform="matrix(1, 0, 0, 1, 8, 158)"><g clip-path="url(#0e7d886542)"><g clip-path="url(#9746c331cf)"><g transform="matrix(1, 0, 0, 1, 0, 0.000000000000028422)"><g clip-path="url(#0f08578596)"><g clip-path="url(#c0a47fba71)"><g transform="matrix(1, 0, 0, 1, 0, 48)"><g clip-path="url(#b216aba7b0)"><g clip-path="url(#3e475b7a0d)"><path fill="#ffffff" d="M 1165.488281 428.519531 C 1174.089844 431.027344 1182.933594 432.941406 1191.949219 434.222656 C 1200.839844 435.484375 1209.886719 436.136719 1219.039062 436.136719 C 1271.84375 436.136719 1319.664062 414.730469 1354.269531 380.125 C 1388.878906 345.519531 1410.28125 297.710938 1410.28125 244.894531 C 1410.28125 192.085938 1388.878906 144.265625 1354.269531 109.660156 C 1319.664062 75.054688 1271.84375 53.648438 1219.039062 53.648438 C 1189.6875 53.648438 1161.867188 60.277344 1136.984375 72.105469 C 1111.152344 84.394531 1088.511719 102.3125 1070.636719 124.269531 C 1016.527344 189.835938 972.445312 258.644531 928.394531 327.410156 C 837.628906 469.089844 746.972656 610.570312 569.808594 721.097656 C 553.625 729.921875 536.722656 737.597656 519.210938 744.011719 C 478.648438 758.878906 434.8125 766.992188 389.0625 766.992188 C 284.613281 766.992188 190.054688 724.652344 121.617188 656.214844 C 53.167969 587.765625 10.839844 493.207031 10.839844 388.769531 C 10.839844 284.316406 53.179688 189.757812 121.617188 121.320312 C 186.363281 56.574219 274.460938 15.203125 372.203125 10.914062 C 364.519531 16.472656 359.511719 25.523438 359.511719 35.742188 C 359.511719 52.65625 373.21875 66.363281 390.132812 66.363281 C 407.046875 66.363281 420.757812 52.65625 420.757812 35.742188 C 420.757812 21.019531 410.355469 8.71875 396.515625 5.78125 L 396.59375 0.976562 L 389.085938 0.886719 C 281.980469 0.886719 185 44.304688 114.808594 114.5 C 44.613281 184.691406 1.195312 281.660156 1.195312 388.78125 C 1.195312 495.886719 44.613281 592.867188 114.808594 663.058594 C 185 733.253906 281.96875 776.671875 389.085938 776.671875 C 435.960938 776.671875 480.921875 768.34375 522.550781 753.09375 C 565.691406 737.28125 605.25 714.03125 639.652344 684.882812 C 777.328125 581.09375 856.875 456.945312 936.519531 332.644531 C 980.457031 264.070312 1024.417969 195.441406 1078.101562 130.390625 L 1074.386719 127.339844 L 1078.121094 130.378906 C 1095.082031 109.535156 1116.578125 92.53125 1141.113281 80.859375 C 1164.714844 69.628906 1191.148438 63.335938 1219.058594 63.335938 C 1269.210938 63.335938 1314.609375 83.664062 1347.472656 116.527344 C 1380.335938 149.386719 1400.660156 194.789062 1400.660156 244.9375 C 1400.660156 295.085938 1380.335938 340.488281 1347.472656 373.351562 C 1314.609375 406.210938 1269.210938 426.539062 1219.058594 426.539062 C 1210.257812 426.539062 1201.660156 425.917969 1193.300781 424.738281 C 1184.699219 423.523438 1176.316406 421.699219 1168.203125 419.335938 L 1165.523438 428.574219 Z M 1165.488281 428.519531 " fill-opacity="1" fill-rule="nonzero"/></g></g></g></g><g clip-path="url(#5bed6f12a1)"><g transform="matrix(1, 0, 0, 1, 969, 539)"><g clip-path="url(#28989527eb)"><g clip-path="url(#c6af6b76e3)"><g fill="#ffffff" fill-opacity="1"><g transform="translate(0.861694, 83.916472)"><g><path d="M 61.1875 -7.078125 L 61.546875 -14.328125 L 60.21875 -37.3125 L 43.859375 0.890625 L 43.234375 2.203125 L 37.140625 2.203125 L 36.515625 0.890625 L 20.25 -37.21875 L 19.09375 -14.234375 C 19.09375 -13.117188 19.15625 -11.265625 19.28125 -8.671875 L 19.359375 -7.078125 L 24.40625 -6.71875 L 26.703125 -6.546875 L 26.4375 -4.25 L 25.90625 0.625 L 25.640625 2.65625 L 23.609375 2.5625 L 19.71875 2.390625 C 16.59375 2.265625 14.054688 2.203125 12.109375 2.203125 C 10.171875 2.203125 8.078125 2.265625 5.828125 2.390625 L 3.09375 2.5625 L 0.890625 2.65625 L 0.703125 0.53125 L 0.265625 -4.0625 L 0.09375 -6.1875 L 2.203125 -6.453125 L 7.515625 -7.078125 C 7.628906 -7.660156 7.75 -8.128906 7.875 -8.484375 C 7.988281 -8.785156 8.101562 -9.347656 8.21875 -10.171875 C 8.34375 -10.578125 8.429688 -10.941406 8.484375 -11.265625 C 8.546875 -11.597656 8.609375 -11.851562 8.671875 -12.03125 L 10.96875 -50.40625 C 10.96875 -50.757812 10.9375 -51.195312 10.875 -51.71875 C 10.8125 -52.25 10.722656 -52.851562 10.609375 -53.53125 C 10.492188 -54.21875 10.375 -54.828125 10.25 -55.359375 L 5.3125 -55.875 L 3.1875 -56.140625 L 3.359375 -58.265625 L 3.796875 -63.21875 L 3.984375 -65.4375 L 6.1875 -65.25 L 10.34375 -64.90625 C 12.40625 -64.664062 14.175781 -64.546875 15.65625 -64.546875 C 17.125 -64.546875 18.710938 -64.601562 20.421875 -64.71875 L 22.71875 -64.90625 L 23.78125 -64.984375 L 24.5 -64.28125 L 25.015625 -63.75 L 25.375 -63.3125 L 25.546875 -62.78125 L 27.59375 -55.53125 C 28.0625 -53.875 28.484375 -52.394531 28.859375 -51.09375 C 29.242188 -49.800781 29.523438 -48.816406 29.703125 -48.140625 C 29.878906 -47.460938 30 -47.035156 30.0625 -46.859375 L 41.90625 -18.5625 L 53.9375 -48.359375 C 54.226562 -49.128906 54.992188 -51.429688 56.234375 -55.265625 C 57.410156 -59.210938 58.148438 -61.71875 58.453125 -62.78125 L 58.625 -63.3125 L 58.984375 -63.75 L 59.515625 -64.28125 L 60.296875 -64.984375 L 61.359375 -64.90625 L 62.953125 -64.71875 C 64.128906 -64.601562 65.488281 -64.546875 67.03125 -64.546875 C 67.726562 -64.546875 68.488281 -64.570312 69.3125 -64.625 C 70.144531 -64.6875 71.03125 -64.78125 71.96875 -64.90625 L 76.046875 -65.25 L 78.171875 -65.4375 L 78.4375 -63.3125 L 78.953125 -58.09375 L 79.140625 -55.796875 L 76.921875 -55.625 L 71.890625 -55.265625 L 71.796875 -54.296875 L 71.796875 -54.109375 C 71.617188 -53.222656 71.53125 -51.988281 71.53125 -50.40625 L 74.546875 -11.9375 C 74.597656 -11.519531 74.769531 -10.753906 75.0625 -9.640625 C 75.125 -9.398438 75.179688 -9.144531 75.234375 -8.875 C 75.296875 -8.613281 75.359375 -8.378906 75.421875 -8.171875 C 75.484375 -7.972656 75.523438 -7.769531 75.546875 -7.5625 C 75.578125 -7.351562 75.625 -7.191406 75.6875 -7.078125 L 81 -6.453125 L 83.109375 -6.1875 L 82.9375 -4.0625 L 82.5 0.53125 L 82.328125 2.65625 L 80.109375 2.5625 L 77.28125 2.390625 C 76.15625 2.328125 75.0625 2.28125 74 2.25 C 72.945312 2.21875 71.929688 2.203125 70.953125 2.203125 C 69.984375 2.203125 68.757812 2.21875 67.28125 2.25 C 65.8125 2.28125 64.101562 2.328125 62.15625 2.390625 L 57.03125 2.5625 L 55 2.65625 L 54.734375 0.625 L 54.203125 -4.25 L 53.9375 -6.546875 L 56.234375 -6.71875 Z M 61.1875 -7.078125 "/></g></g></g></g><g fill="#ffffff" fill-opacity="1"><g transform="translate(113.957631, 83.916472)"><g><path d="M 56.234375 -56.234375 C 61.535156 -49.929688 64.1875 -41.578125 64.1875 -31.171875 C 64.1875 -20.765625 61.535156 -12.40625 56.234375 -6.09375 C 50.804688 0.320312 43.050781 3.53125 32.96875 3.53125 C 22.894531 3.53125 15.144531 0.320312 9.71875 -6.09375 C 4.414062 -12.40625 1.765625 -20.765625 1.765625 -31.171875 C 1.765625 -41.578125 4.414062 -49.929688 9.71875 -56.234375 C 15.144531 -62.660156 22.898438 -65.875 32.984375 -65.875 C 35.453125 -65.875 37.789062 -65.679688 40 -65.296875 C 42.21875 -64.910156 44.296875 -64.320312 46.234375 -63.53125 C 48.179688 -62.738281 49.992188 -61.722656 51.671875 -60.484375 C 53.359375 -59.242188 54.878906 -57.828125 56.234375 -56.234375 Z M 15.65625 -31.125 C 15.65625 -27.226562 16.050781 -23.71875 16.84375 -20.59375 C 17.632812 -17.476562 18.800781 -14.738281 20.34375 -12.375 C 23.289062 -7.84375 27.503906 -5.578125 32.984375 -5.578125 C 38.460938 -5.578125 42.675781 -7.84375 45.625 -12.375 C 46.625 -13.96875 47.476562 -15.707031 48.1875 -17.59375 C 48.894531 -19.476562 49.425781 -21.554688 49.78125 -23.828125 C 50.132812 -26.097656 50.3125 -28.53125 50.3125 -31.125 C 50.3125 -38.84375 48.75 -45.117188 45.625 -49.953125 C 42.675781 -54.492188 38.460938 -56.765625 32.984375 -56.765625 C 27.503906 -56.765625 23.289062 -54.492188 20.34375 -49.953125 C 19.332031 -48.367188 18.472656 -46.617188 17.765625 -44.703125 C 17.066406 -42.785156 16.539062 -40.691406 16.1875 -38.421875 C 15.832031 -36.148438 15.65625 -33.71875 15.65625 -31.125 Z M 15.65625 -31.125 "/></g></g></g><g fill="#ffffff" fill-opacity="1"><g transform="translate(209.811288, 83.916472)"><g><path d="M 29.09375 -35.640625 L 45.625 -35.984375 L 45.625 -50.21875 C 45.625 -50.988281 45.503906 -52.050781 45.265625 -53.40625 C 45.148438 -54.113281 45.035156 -54.734375 44.921875 -55.265625 L 39.875 -55.796875 L 37.75 -56.0625 L 37.9375 -58.1875 L 38.375 -62.953125 L 38.546875 -65.171875 L 40.765625 -64.984375 L 43.59375 -64.71875 C 45.769531 -64.601562 48.140625 -64.546875 50.703125 -64.546875 C 53.273438 -64.546875 55.738281 -64.664062 58.09375 -64.90625 L 62.875 -65.25 L 64.984375 -65.4375 L 65.25 -63.3125 L 65.78125 -58.09375 L 65.96875 -55.796875 L 63.75 -55.625 L 58.71875 -55.265625 L 58.53125 -53.84375 C 58.351562 -52.664062 58.265625 -50.578125 58.265625 -47.578125 L 58.265625 -14.765625 C 58.265625 -11.753906 58.351562 -9.660156 58.53125 -8.484375 L 58.71875 -7.078125 L 63.75 -6.71875 L 66.046875 -6.546875 L 65.78125 -4.25 L 65.25 0.625 L 64.984375 2.65625 L 62.953125 2.5625 L 58.1875 2.390625 C 54.582031 2.265625 51.78125 2.203125 49.78125 2.203125 C 48.78125 2.203125 47.765625 2.21875 46.734375 2.25 C 45.703125 2.28125 44.625 2.328125 43.5 2.390625 L 40.765625 2.5625 L 38.546875 2.65625 L 38.375 0.53125 L 37.9375 -4.328125 L 37.75 -6.546875 L 39.96875 -6.71875 L 45 -7.078125 L 45.265625 -8.484375 C 45.503906 -9.835938 45.625 -11.046875 45.625 -12.109375 L 45.625 -26.796875 L 20.6875 -26.53125 L 20.6875 -14.765625 C 20.6875 -11.753906 20.773438 -9.660156 20.953125 -8.484375 L 21.140625 -7.078125 L 26.171875 -6.71875 L 28.46875 -6.546875 L 28.203125 -4.25 L 27.671875 0.625 L 27.40625 2.65625 L 25.375 2.5625 L 21.140625 2.390625 C 17.890625 2.265625 15.144531 2.203125 12.90625 2.203125 C 10.78125 2.203125 8.71875 2.351562 6.71875 2.65625 L 3.53125 3 L 1.328125 3.265625 L 1.0625 1.0625 L 0.4375 -3.984375 L 0.171875 -6.1875 L 2.390625 -6.453125 L 7.515625 -7.078125 C 7.578125 -7.484375 7.664062 -7.953125 7.78125 -8.484375 C 8.019531 -9.835938 8.140625 -11.046875 8.140625 -12.109375 L 8.140625 -50.21875 C 8.140625 -50.394531 8.140625 -50.585938 8.140625 -50.796875 C 8.140625 -51.003906 8.125 -51.238281 8.09375 -51.5 C 8.0625 -51.769531 8.015625 -52.066406 7.953125 -52.390625 C 7.898438 -52.710938 7.84375 -53.050781 7.78125 -53.40625 C 7.71875 -53.757812 7.65625 -54.113281 7.59375 -54.46875 C 7.539062 -54.820312 7.484375 -55.117188 7.421875 -55.359375 L 2.296875 -56.140625 L 0.265625 -56.5 L 0.4375 -58.53125 L 0.890625 -62.953125 L 1.15625 -65.171875 L 3.265625 -64.984375 L 6.09375 -64.71875 C 8.28125 -64.601562 10.671875 -64.546875 13.265625 -64.546875 C 13.671875 -64.546875 14.082031 -64.546875 14.5 -64.546875 C 14.914062 -64.546875 15.328125 -64.5625 15.734375 -64.59375 C 16.148438 -64.625 16.5625 -64.640625 16.96875 -64.640625 C 17.382812 -64.640625 17.796875 -64.648438 18.203125 -64.671875 C 18.617188 -64.703125 19.019531 -64.734375 19.40625 -64.765625 C 19.789062 -64.796875 20.191406 -64.84375 20.609375 -64.90625 L 25.28125 -65.25 L 27.40625 -65.4375 L 27.671875 -63.3125 L 28.203125 -58.09375 L 28.390625 -55.796875 L 26.171875 -55.625 L 21.140625 -55.265625 L 20.953125 -53.84375 C 20.773438 -52.664062 20.6875 -50.578125 20.6875 -47.578125 L 20.6875 -35.8125 C 22.570312 -35.695312 25.375 -35.640625 29.09375 -35.640625 Z M 29.09375 -35.640625 "/></g></g></g><g fill="#ffffff" fill-opacity="1"><g transform="translate(305.930237, 83.916472)"><g><path d="M 27.234375 -64.453125 L 32.015625 -65.4375 L 33.875 -65.875 L 34.484375 -64.109375 L 44.21875 -38.8125 C 45.632812 -35.21875 47.164062 -31.210938 48.8125 -26.796875 C 52.226562 -17.835938 54.085938 -13.003906 54.390625 -12.296875 L 54.46875 -12.203125 L 54.5625 -12.03125 C 54.914062 -10.90625 55.769531 -9.191406 57.125 -6.890625 L 60.484375 -6.546875 L 62.609375 -6.359375 L 62.515625 -4.25 L 62.25 0.4375 L 62.171875 2.65625 L 59.953125 2.5625 L 53.859375 2.390625 C 49.554688 2.265625 46.84375 2.203125 45.71875 2.203125 C 45.476562 2.203125 45.253906 2.203125 45.046875 2.203125 C 44.847656 2.203125 44.613281 2.203125 44.34375 2.203125 C 44.082031 2.203125 43.832031 2.21875 43.59375 2.25 C 43.363281 2.28125 43.097656 2.3125 42.796875 2.34375 C 42.503906 2.375 42.210938 2.390625 41.921875 2.390625 L 39.796875 2.5625 L 37.578125 2.734375 L 37.40625 0.53125 L 36.96875 -4.15625 L 36.78125 -6.28125 L 39 -6.546875 L 42.890625 -6.890625 C 42.597656 -8.484375 42.300781 -9.753906 42 -10.703125 L 39.09375 -18.390625 L 20.171875 -18.125 L 17.078125 -9.546875 C 17.015625 -9.253906 16.953125 -8.957031 16.890625 -8.65625 C 16.835938 -8.363281 16.78125 -8.082031 16.71875 -7.8125 C 16.65625 -7.550781 16.597656 -7.273438 16.546875 -6.984375 L 21.234375 -6.546875 L 23.4375 -6.28125 L 23.171875 -4.0625 L 22.640625 0.625 L 22.375 2.65625 L 20.34375 2.5625 L 14.859375 2.390625 C 10.796875 2.265625 8.054688 2.203125 6.640625 2.203125 C 5.222656 2.203125 3.894531 2.265625 2.65625 2.390625 L 1.0625 2.5625 L -1.234375 2.828125 L -1.40625 0.4375 L -1.671875 -4.15625 L -1.765625 -6.1875 L 0.265625 -6.453125 L 4.15625 -6.984375 C 5.394531 -9.222656 6.382812 -11.050781 7.125 -12.46875 C 7.863281 -13.882812 8.320312 -14.738281 8.5 -15.03125 L 25.5625 -63.046875 L 26 -64.28125 Z M 23.34375 -27.234375 C 24.226562 -27.171875 24.953125 -27.140625 25.515625 -27.140625 C 26.078125 -27.140625 26.59375 -27.140625 27.0625 -27.140625 C 28.414062 -27.140625 30.390625 -27.171875 32.984375 -27.234375 C 33.929688 -27.296875 34.816406 -27.328125 35.640625 -27.328125 L 29.265625 -43.953125 Z M 23.34375 -27.234375 "/></g></g></g><g fill="#ffffff" fill-opacity="1"><g transform="translate(396.478591, 83.916472)"><g><path d="M 61.1875 -7.078125 L 61.546875 -14.328125 L 60.21875 -37.3125 L 43.859375 0.890625 L 43.234375 2.203125 L 37.140625 2.203125 L 36.515625 0.890625 L 20.25 -37.21875 L 19.09375 -14.234375 C 19.09375 -13.117188 19.15625 -11.265625 19.28125 -8.671875 L 19.359375 -7.078125 L 24.40625 -6.71875 L 26.703125 -6.546875 L 26.4375 -4.25 L 25.90625 0.625 L 25.640625 2.65625 L 23.609375 2.5625 L 19.71875 2.390625 C 16.59375 2.265625 14.054688 2.203125 12.109375 2.203125 C 10.171875 2.203125 8.078125 2.265625 5.828125 2.390625 L 3.09375 2.5625 L 0.890625 2.65625 L 0.703125 0.53125 L 0.265625 -4.0625 L 0.09375 -6.1875 L 2.203125 -6.453125 L 7.515625 -7.078125 C 7.628906 -7.660156 7.75 -8.128906 7.875 -8.484375 C 7.988281 -8.785156 8.101562 -9.347656 8.21875 -10.171875 C 8.34375 -10.578125 8.429688 -10.941406 8.484375 -11.265625 C 8.546875 -11.597656 8.609375 -11.851562 8.671875 -12.03125 L 10.96875 -50.40625 C 10.96875 -50.757812 10.9375 -51.195312 10.875 -51.71875 C 10.8125 -52.25 10.722656 -52.851562 10.609375 -53.53125 C 10.492188 -54.21875 10.375 -54.828125 10.25 -55.359375 L 5.3125 -55.875 L 3.1875 -56.140625 L 3.359375 -58.265625 L 3.796875 -63.21875 L 3.984375 -65.4375 L 6.1875 -65.25 L 10.34375 -64.90625 C 12.40625 -64.664062 14.175781 -64.546875 15.65625 -64.546875 C 17.125 -64.546875 18.710938 -64.601562 20.421875 -64.71875 L 22.71875 -64.90625 L 23.78125 -64.984375 L 24.5 -64.28125 L 25.015625 -63.75 L 25.375 -63.3125 L 25.546875 -62.78125 L 27.59375 -55.53125 C 28.0625 -53.875 28.484375 -52.394531 28.859375 -51.09375 C 29.242188 -49.800781 29.523438 -48.816406 29.703125 -48.140625 C 29.878906 -47.460938 30 -47.035156 30.0625 -46.859375 L 41.90625 -18.5625 L 53.9375 -48.359375 C 54.226562 -49.128906 54.992188 -51.429688 56.234375 -55.265625 C 57.410156 -59.210938 58.148438 -61.71875 58.453125 -62.78125 L 58.625 -63.3125 L 58.984375 -63.75 L 59.515625 -64.28125 L 60.296875 -64.984375 L 61.359375 -64.90625 L 62.953125 -64.71875 C 64.128906 -64.601562 65.488281 -64.546875 67.03125 -64.546875 C 67.726562 -64.546875 68.488281 -64.570312 69.3125 -64.625 C 70.144531 -64.6875 71.03125 -64.78125 71.96875 -64.90625 L 76.046875 -65.25 L 78.171875 -65.4375 L 78.4375 -63.3125 L 78.953125 -58.09375 L 79.140625 -55.796875 L 76.921875 -55.625 L 71.890625 -55.265625 L 71.796875 -54.296875 L 71.796875 -54.109375 C 71.617188 -53.222656 71.53125 -51.988281 71.53125 -50.40625 L 74.546875 -11.9375 C 74.597656 -11.519531 74.769531 -10.753906 75.0625 -9.640625 C 75.125 -9.398438 75.179688 -9.144531 75.234375 -8.875 C 75.296875 -8.613281 75.359375 -8.378906 75.421875 -8.171875 C 75.484375 -7.972656 75.523438 -7.769531 75.546875 -7.5625 C 75.578125 -7.351562 75.625 -7.191406 75.6875 -7.078125 L 81 -6.453125 L 83.109375 -6.1875 L 82.9375 -4.0625 L 82.5 0.53125 L 82.328125 2.65625 L 80.109375 2.5625 L 77.28125 2.390625 C 76.15625 2.328125 75.0625 2.28125 74 2.25 C 72.945312 2.21875 71.929688 2.203125 70.953125 2.203125 C 69.984375 2.203125 68.757812 2.21875 67.28125 2.25 C 65.8125 2.28125 64.101562 2.328125 62.15625 2.390625 L 57.03125 2.5625 L 55 2.65625 L 54.734375 0.625 L 54.203125 -4.25 L 53.9375 -6.546875 L 56.234375 -6.71875 Z M 61.1875 -7.078125 "/></g></g></g><g fill="#ffffff" fill-opacity="1"><g transform="translate(509.574504, 83.916472)"><g><path d="M 27.234375 -64.453125 L 32.015625 -65.4375 L 33.875 -65.875 L 34.484375 -64.109375 L 44.21875 -38.8125 C 45.632812 -35.21875 47.164062 -31.210938 48.8125 -26.796875 C 52.226562 -17.835938 54.085938 -13.003906 54.390625 -12.296875 L 54.46875 -12.203125 L 54.5625 -12.03125 C 54.914062 -10.90625 55.769531 -9.191406 57.125 -6.890625 L 60.484375 -6.546875 L 62.609375 -6.359375 L 62.515625 -4.25 L 62.25 0.4375 L 62.171875 2.65625 L 59.953125 2.5625 L 53.859375 2.390625 C 49.554688 2.265625 46.84375 2.203125 45.71875 2.203125 C 45.476562 2.203125 45.253906 2.203125 45.046875 2.203125 C 44.847656 2.203125 44.613281 2.203125 44.34375 2.203125 C 44.082031 2.203125 43.832031 2.21875 43.59375 2.25 C 43.363281 2.28125 43.097656 2.3125 42.796875 2.34375 C 42.503906 2.375 42.210938 2.390625 41.921875 2.390625 L 39.796875 2.5625 L 37.578125 2.734375 L 37.40625 0.53125 L 36.96875 -4.15625 L 36.78125 -6.28125 L 39 -6.546875 L 42.890625 -6.890625 C 42.597656 -8.484375 42.300781 -9.753906 42 -10.703125 L 39.09375 -18.390625 L 20.171875 -18.125 L 17.078125 -9.546875 C 17.015625 -9.253906 16.953125 -8.957031 16.890625 -8.65625 C 16.835938 -8.363281 16.78125 -8.082031 16.71875 -7.8125 C 16.65625 -7.550781 16.597656 -7.273438 16.546875 -6.984375 L 21.234375 -6.546875 L 23.4375 -6.28125 L 23.171875 -4.0625 L 22.640625 0.625 L 22.375 2.65625 L 20.34375 2.5625 L 14.859375 2.390625 C 10.796875 2.265625 8.054688 2.203125 6.640625 2.203125 C 5.222656 2.203125 3.894531 2.265625 2.65625 2.390625 L 1.0625 2.5625 L -1.234375 2.828125 L -1.40625 0.4375 L -1.671875 -4.15625 L -1.765625 -6.1875 L 0.265625 -6.453125 L 4.15625 -6.984375 C 5.394531 -9.222656 6.382812 -11.050781 7.125 -12.46875 C 7.863281 -13.882812 8.320312 -14.738281 8.5 -15.03125 L 25.5625 -63.046875 L 26 -64.28125 Z M 23.34375 -27.234375 C 24.226562 -27.171875 24.953125 -27.140625 25.515625 -27.140625 C 26.078125 -27.140625 26.59375 -27.140625 27.0625 -27.140625 C 28.414062 -27.140625 30.390625 -27.171875 32.984375 -27.234375 C 33.929688 -27.296875 34.816406 -27.328125 35.640625 -27.328125 L 29.265625 -43.953125 Z M 23.34375 -27.234375 "/></g></g></g><g fill="#ffffff" fill-opacity="1"><g transform="translate(600.122858, 83.916472)"><g><path d="M 28.296875 3.1875 L 10.515625 2.296875 C 8.398438 2.410156 6.925781 2.554688 6.09375 2.734375 L 5.921875 2.734375 L 3.53125 3 L 1.328125 3.265625 L 1.0625 1.0625 L 0.4375 -3.984375 L 0.171875 -6.1875 L 2.390625 -6.453125 L 7.515625 -7.078125 C 7.578125 -7.484375 7.664062 -7.953125 7.78125 -8.484375 C 8.019531 -9.835938 8.140625 -11.046875 8.140625 -12.109375 L 8.140625 -50.21875 C 8.140625 -50.394531 8.140625 -50.585938 8.140625 -50.796875 C 8.140625 -51.003906 8.125 -51.238281 8.09375 -51.5 C 8.0625 -51.769531 8.015625 -52.066406 7.953125 -52.390625 C 7.898438 -52.710938 7.84375 -53.050781 7.78125 -53.40625 C 7.71875 -53.757812 7.65625 -54.113281 7.59375 -54.46875 C 7.539062 -54.820312 7.484375 -55.117188 7.421875 -55.359375 L 2.296875 -56.140625 L 0.265625 -56.5 L 0.4375 -58.53125 L 0.890625 -62.953125 L 1.15625 -65.171875 L 3.265625 -64.984375 L 6.09375 -64.71875 C 7.21875 -64.664062 8.222656 -64.625 9.109375 -64.59375 C 9.992188 -64.5625 10.789062 -64.546875 11.5 -64.546875 L 11.84375 -64.546875 C 12.375 -64.546875 13.019531 -64.5625 13.78125 -64.59375 C 14.550781 -64.625 15.421875 -64.664062 16.390625 -64.71875 C 17.367188 -64.78125 18.445312 -64.867188 19.625 -64.984375 C 21.457031 -65.109375 23.09375 -65.210938 24.53125 -65.296875 C 25.976562 -65.390625 27.265625 -65.4375 28.390625 -65.4375 C 38.765625 -65.4375 46.804688 -62.335938 52.515625 -56.140625 C 58.234375 -50.015625 61.09375 -41.75 61.09375 -31.34375 C 61.09375 -20.9375 58.175781 -12.582031 52.34375 -6.28125 C 46.445312 0.03125 38.460938 3.1875 28.390625 3.1875 Z M 20.6875 -14.859375 L 21.140625 -6.71875 C 23.078125 -6.601562 25.519531 -6.546875 28.46875 -6.546875 C 29.113281 -6.546875 29.742188 -6.554688 30.359375 -6.578125 C 30.984375 -6.609375 31.585938 -6.664062 32.171875 -6.75 C 32.765625 -6.84375 33.328125 -6.960938 33.859375 -7.109375 C 34.390625 -7.265625 34.90625 -7.429688 35.40625 -7.609375 C 35.914062 -7.785156 36.40625 -7.972656 36.875 -8.171875 C 37.34375 -8.378906 37.796875 -8.613281 38.234375 -8.875 C 38.679688 -9.144531 39.109375 -9.441406 39.515625 -9.765625 C 39.929688 -10.085938 40.332031 -10.425781 40.71875 -10.78125 C 41.101562 -11.132812 41.472656 -11.503906 41.828125 -11.890625 C 42.179688 -12.273438 42.503906 -12.703125 42.796875 -13.171875 C 46.210938 -17.773438 47.921875 -23.757812 47.921875 -31.125 C 47.921875 -38.488281 46.210938 -44.472656 42.796875 -49.078125 C 39.554688 -53.492188 34.78125 -55.703125 28.46875 -55.703125 C 25.582031 -55.703125 23.078125 -55.613281 20.953125 -55.4375 C 20.773438 -53.375 20.6875 -50.753906 20.6875 -47.578125 Z M 20.6875 -14.859375 "/></g></g></g><g fill="#ffffff" fill-opacity="1"><g transform="translate(0.861694, 175.335729)"><g><path d="M 29.53125 -21.484375 C 27.707031 -22.898438 25.613281 -24.195312 23.25 -25.375 L 19.359375 -27.328125 L 19.015625 -27.40625 L 18.921875 -27.5 L 18.75 -27.59375 C 17.09375 -28.351562 15.554688 -29.160156 14.140625 -30.015625 C 12.734375 -30.867188 11.425781 -31.753906 10.21875 -32.671875 C 9.007812 -33.585938 7.898438 -34.515625 6.890625 -35.453125 C 3.828125 -38.523438 2.296875 -42.679688 2.296875 -47.921875 C 2.296875 -53.347656 4.359375 -57.710938 8.484375 -61.015625 C 12.429688 -64.253906 17.175781 -65.875 22.71875 -65.875 C 23.488281 -65.875 24.269531 -65.859375 25.0625 -65.828125 C 25.863281 -65.796875 26.691406 -65.734375 27.546875 -65.640625 C 28.398438 -65.554688 29.269531 -65.457031 30.15625 -65.34375 C 31.039062 -65.226562 31.953125 -65.09375 32.890625 -64.9375 C 33.835938 -64.789062 34.8125 -64.613281 35.8125 -64.40625 C 36.8125 -64.207031 37.828125 -63.988281 38.859375 -63.75 C 39.890625 -63.519531 40.96875 -63.253906 42.09375 -62.953125 L 43.953125 -62.515625 L 43.765625 -60.65625 L 42.53125 -47.65625 L 42.359375 -45.453125 L 40.0625 -45.625 L 34.84375 -46.15625 L 32.890625 -46.328125 L 32.890625 -51.90625 C 32.828125 -52.3125 32.5625 -53.398438 32.09375 -55.171875 C 29.5 -56.117188 26.847656 -56.59375 24.140625 -56.59375 C 21.367188 -56.59375 19.21875 -55.914062 17.6875 -54.5625 C 16.269531 -53.320312 15.5625 -51.460938 15.5625 -48.984375 C 15.5625 -46.679688 16.738281 -44.617188 19.09375 -42.796875 C 21.039062 -41.378906 23.132812 -40.140625 25.375 -39.078125 C 26.613281 -38.492188 27.507812 -38.050781 28.0625 -37.75 C 28.625 -37.457031 28.9375 -37.28125 29 -37.21875 C 31.832031 -35.8125 34.070312 -34.578125 35.71875 -33.515625 C 36.3125 -33.160156 36.882812 -32.773438 37.4375 -32.359375 C 38 -31.953125 38.578125 -31.523438 39.171875 -31.078125 C 39.765625 -30.640625 40.351562 -30.15625 40.9375 -29.625 C 44.832031 -26.144531 46.78125 -21.457031 46.78125 -15.5625 C 46.78125 -9.550781 44.507812 -4.835938 39.96875 -1.421875 C 35.601562 1.878906 30.414062 3.53125 24.40625 3.53125 C 18.6875 3.53125 13.410156 2.738281 8.578125 1.15625 C 6.515625 0.445312 4.597656 -0.410156 2.828125 -1.421875 L 1.6875 -2.203125 L 1.765625 -3.53125 L 3.09375 -17.15625 L 3.359375 -19.359375 L 5.484375 -19.1875 L 11.3125 -18.65625 L 13.359375 -18.484375 L 13.359375 -12.203125 C 13.359375 -11.609375 13.59375 -10.191406 14.0625 -7.953125 C 17.125 -6.773438 20.21875 -6.1875 23.34375 -6.1875 C 26.53125 -6.1875 28.976562 -6.953125 30.6875 -8.484375 C 32.269531 -9.960938 33.0625 -12.085938 33.0625 -14.859375 C 33.0625 -17.503906 31.882812 -19.710938 29.53125 -21.484375 Z M 29.53125 -21.484375 "/></g></g></g><g fill="#ffffff" fill-opacity="1"><g transform="translate(79.296235, 175.335729)"><g><path d="M 16.09375 -6.453125 L 21.234375 -7.078125 C 21.285156 -7.253906 21.328125 -7.457031 21.359375 -7.6875 C 21.390625 -7.925781 21.429688 -8.191406 21.484375 -8.484375 C 21.722656 -9.835938 21.84375 -11.046875 21.84375 -12.109375 L 21.84375 -23.34375 L 8.765625 -48.28125 C 8.109375 -49.101562 7.28125 -50.101562 6.28125 -51.28125 C 5.28125 -52.457031 4.191406 -53.726562 3.015625 -55.09375 L 0.359375 -55.359375 L -1.84375 -55.625 L -1.671875 -57.734375 L -1.328125 -62.953125 L -1.140625 -65.171875 L 1.0625 -64.984375 L 4.515625 -64.71875 C 7.222656 -64.601562 9.695312 -64.546875 11.9375 -64.546875 C 14.175781 -64.546875 16.390625 -64.632812 18.578125 -64.8125 L 21.9375 -65.171875 L 24.328125 -65.4375 L 24.40625 -63.046875 L 24.59375 -57.46875 L 24.671875 -55.359375 L 22.546875 -55.171875 L 19.90625 -54.90625 C 21.375 -50.71875 22.316406 -48.273438 22.734375 -47.578125 L 28.921875 -35.453125 L 37.40625 -52.078125 C 37.519531 -52.429688 37.90625 -53.492188 38.5625 -55.265625 L 35.546875 -55.625 L 33.421875 -55.875 L 33.609375 -58 L 34.046875 -63.046875 L 34.21875 -65.25 L 36.4375 -65.078125 L 39.53125 -64.8125 L 39.703125 -64.8125 C 40.703125 -64.632812 42.585938 -64.546875 45.359375 -64.546875 C 45.953125 -64.546875 46.53125 -64.546875 47.09375 -64.546875 C 47.65625 -64.546875 48.1875 -64.5625 48.6875 -64.59375 C 49.1875 -64.625 49.6875 -64.640625 50.1875 -64.640625 C 50.6875 -64.640625 51.171875 -64.648438 51.640625 -64.671875 C 52.109375 -64.703125 52.550781 -64.75 52.96875 -64.8125 L 56.328125 -65.171875 L 58.8125 -65.4375 L 58.8125 -62.953125 L 58.890625 -57.5625 L 58.890625 -55.625 L 56.953125 -55.359375 L 51.828125 -54.734375 L 45.8125 -47.046875 L 34.484375 -25.28125 L 34.484375 -14.765625 C 34.484375 -13.234375 34.5 -11.9375 34.53125 -10.875 C 34.5625 -9.8125 34.632812 -9.015625 34.75 -8.484375 L 34.9375 -7.078125 L 39.96875 -6.71875 L 42.265625 -6.546875 L 42 -4.25 L 41.46875 0.625 L 41.203125 2.65625 L 39.171875 2.5625 L 34.484375 2.390625 C 32.660156 2.328125 31.039062 2.28125 29.625 2.25 C 28.207031 2.21875 27.03125 2.203125 26.09375 2.203125 C 24.082031 2.203125 21.957031 2.265625 19.71875 2.390625 L 16.984375 2.5625 L 14.765625 2.65625 L 14.59375 0.53125 L 14.15625 -4.0625 L 13.96875 -6.1875 Z M 16.09375 -6.453125 "/></g></g></g><g fill="#ffffff" fill-opacity="1"><g transform="translate(166.219281, 175.335729)"><g><path d="M 27.234375 -64.453125 L 32.015625 -65.4375 L 33.875 -65.875 L 34.484375 -64.109375 L 44.21875 -38.8125 C 45.632812 -35.21875 47.164062 -31.210938 48.8125 -26.796875 C 52.226562 -17.835938 54.085938 -13.003906 54.390625 -12.296875 L 54.46875 -12.203125 L 54.5625 -12.03125 C 54.914062 -10.90625 55.769531 -9.191406 57.125 -6.890625 L 60.484375 -6.546875 L 62.609375 -6.359375 L 62.515625 -4.25 L 62.25 0.4375 L 62.171875 2.65625 L 59.953125 2.5625 L 53.859375 2.390625 C 49.554688 2.265625 46.84375 2.203125 45.71875 2.203125 C 45.476562 2.203125 45.253906 2.203125 45.046875 2.203125 C 44.847656 2.203125 44.613281 2.203125 44.34375 2.203125 C 44.082031 2.203125 43.832031 2.21875 43.59375 2.25 C 43.363281 2.28125 43.097656 2.3125 42.796875 2.34375 C 42.503906 2.375 42.210938 2.390625 41.921875 2.390625 L 39.796875 2.5625 L 37.578125 2.734375 L 37.40625 0.53125 L 36.96875 -4.15625 L 36.78125 -6.28125 L 39 -6.546875 L 42.890625 -6.890625 C 42.597656 -8.484375 42.300781 -9.753906 42 -10.703125 L 39.09375 -18.390625 L 20.171875 -18.125 L 17.078125 -9.546875 C 17.015625 -9.253906 16.953125 -8.957031 16.890625 -8.65625 C 16.835938 -8.363281 16.78125 -8.082031 16.71875 -7.8125 C 16.65625 -7.550781 16.597656 -7.273438 16.546875 -6.984375 L 21.234375 -6.546875 L 23.4375 -6.28125 L 23.171875 -4.0625 L 22.640625 0.625 L 22.375 2.65625 L 20.34375 2.5625 L 14.859375 2.390625 C 10.796875 2.265625 8.054688 2.203125 6.640625 2.203125 C 5.222656 2.203125 3.894531 2.265625 2.65625 2.390625 L 1.0625 2.5625 L -1.234375 2.828125 L -1.40625 0.4375 L -1.671875 -4.15625 L -1.765625 -6.1875 L 0.265625 -6.453125 L 4.15625 -6.984375 C 5.394531 -9.222656 6.382812 -11.050781 7.125 -12.46875 C 7.863281 -13.882812 8.320312 -14.738281 8.5 -15.03125 L 25.5625 -63.046875 L 26 -64.28125 Z M 23.34375 -27.234375 C 24.226562 -27.171875 24.953125 -27.140625 25.515625 -27.140625 C 26.078125 -27.140625 26.59375 -27.140625 27.0625 -27.140625 C 28.414062 -27.140625 30.390625 -27.171875 32.984375 -27.234375 C 33.929688 -27.296875 34.816406 -27.328125 35.640625 -27.328125 L 29.265625 -43.953125 Z M 23.34375 -27.234375 "/></g></g></g><g fill="#ffffff" fill-opacity="1"><g transform="translate(256.767634, 175.335729)"><g><path d="M 17.59375 -32.625 L 33.515625 -52.25 L 35.453125 -55.703125 L 33.859375 -55.875 L 31.828125 -56.234375 L 32.015625 -58.265625 L 32.453125 -62.953125 L 32.625 -65.171875 L 34.84375 -64.984375 L 37.484375 -64.71875 C 38.492188 -64.664062 39.539062 -64.625 40.625 -64.59375 C 41.71875 -64.5625 42.882812 -64.546875 44.125 -64.546875 C 46.601562 -64.546875 48.875 -64.664062 50.9375 -64.90625 L 54.90625 -65.25 L 57.03125 -65.4375 L 57.296875 -63.3125 L 57.828125 -58.09375 L 58 -55.796875 L 55.796875 -55.625 L 49.953125 -55.171875 C 49.484375 -54.765625 48.953125 -54.28125 48.359375 -53.71875 C 47.773438 -53.15625 47.128906 -52.519531 46.421875 -51.8125 C 45.710938 -51.101562 44.929688 -50.335938 44.078125 -49.515625 C 43.222656 -48.691406 42.320312 -47.804688 41.375 -46.859375 L 30.765625 -32.796875 C 31.242188 -32.273438 31.820312 -31.613281 32.5 -30.8125 C 33.175781 -30.019531 33.925781 -29.132812 34.75 -28.15625 C 35.570312 -27.1875 36.546875 -26.054688 37.671875 -24.765625 C 41.972656 -19.628906 45.363281 -15.675781 47.84375 -12.90625 C 50.257812 -10.550781 52.410156 -8.609375 54.296875 -7.078125 L 59.859375 -6.71875 L 62.15625 -6.546875 L 61.890625 -4.25 L 61.359375 0.625 L 61.09375 2.65625 L 59.0625 2.5625 L 54.375 2.390625 C 50.78125 2.265625 47.984375 2.203125 45.984375 2.203125 C 44.097656 2.203125 42.035156 2.265625 39.796875 2.390625 L 37.046875 2.5625 L 34.84375 2.65625 L 34.65625 0.53125 L 34.21875 -4.0625 L 34.046875 -6.1875 L 36.171875 -6.453125 L 36.6875 -6.546875 C 35.8125 -7.960938 35.019531 -9.195312 34.3125 -10.25 C 33.601562 -11.3125 32.925781 -12.226562 32.28125 -13 C 31.445312 -13.882812 30.148438 -15.359375 28.390625 -17.421875 C 27.734375 -18.128906 27.15625 -18.773438 26.65625 -19.359375 C 26.15625 -19.953125 25.695312 -20.484375 25.28125 -20.953125 C 24.875 -21.421875 24.523438 -21.832031 24.234375 -22.1875 L 17.59375 -29.796875 L 16.359375 -31.125 Z M 8.140625 -12.109375 L 8.140625 -50.21875 C 8.140625 -50.394531 8.140625 -50.585938 8.140625 -50.796875 C 8.140625 -51.003906 8.125 -51.238281 8.09375 -51.5 C 8.0625 -51.769531 8.015625 -52.066406 7.953125 -52.390625 C 7.898438 -52.710938 7.84375 -53.050781 7.78125 -53.40625 C 7.664062 -54.113281 7.546875 -54.734375 7.421875 -55.265625 L 2.390625 -55.875 L 0.265625 -56.140625 L 0.4375 -58.265625 L 0.890625 -62.953125 L 1.0625 -65.171875 L 3.265625 -64.984375 L 6.09375 -64.71875 C 8.28125 -64.601562 10.640625 -64.546875 13.171875 -64.546875 C 14.472656 -64.546875 15.726562 -64.570312 16.9375 -64.625 C 18.144531 -64.6875 19.335938 -64.78125 20.515625 -64.90625 L 25.203125 -65.25 L 27.328125 -65.4375 L 27.59375 -63.3125 L 28.125 -58.09375 L 28.296875 -55.796875 L 26.078125 -55.625 L 21.046875 -55.265625 L 20.875 -53.84375 C 20.75 -53.257812 20.671875 -52.453125 20.640625 -51.421875 C 20.617188 -50.390625 20.609375 -49.109375 20.609375 -47.578125 L 20.609375 -14.765625 C 20.609375 -13.765625 20.617188 -12.847656 20.640625 -12.015625 C 20.671875 -11.191406 20.703125 -10.484375 20.734375 -9.890625 C 20.765625 -9.304688 20.8125 -8.835938 20.875 -8.484375 L 21.046875 -7.078125 L 26.078125 -6.71875 L 28.390625 -6.546875 L 28.125 -4.25 L 27.59375 0.625 L 27.328125 2.65625 L 25.28125 2.5625 L 20.609375 2.390625 C 17.003906 2.265625 14.203125 2.203125 12.203125 2.203125 C 10.316406 2.203125 8.253906 2.265625 6.015625 2.390625 L 3.265625 2.5625 L 1.0625 2.65625 L 0.890625 0.53125 L 0.4375 -4.0625 L 0.265625 -6.1875 L 2.390625 -6.453125 L 7.515625 -7.078125 C 7.578125 -7.484375 7.664062 -7.953125 7.78125 -8.484375 C 8.019531 -9.835938 8.140625 -11.046875 8.140625 -12.109375 Z M 8.140625 -12.109375 "/></g></g></g><g fill="#ffffff" fill-opacity="1"><g transform="translate(346.78545, 175.335729)"><g><path d="M 9.015625 -12.109375 L 9.015625 -50.21875 C 9.015625 -50.394531 9.015625 -50.585938 9.015625 -50.796875 C 9.015625 -51.003906 9 -51.238281 8.96875 -51.5 C 8.945312 -51.769531 8.90625 -52.066406 8.84375 -52.390625 C 8.78125 -52.710938 8.722656 -53.050781 8.671875 -53.40625 C 8.546875 -54.113281 8.425781 -54.734375 8.3125 -55.265625 L 3.265625 -55.875 L 1.15625 -56.140625 L 1.328125 -58.265625 L 1.765625 -62.953125 L 1.9375 -65.171875 L 4.15625 -64.984375 L 6.984375 -64.71875 C 9.160156 -64.601562 11.519531 -64.546875 14.0625 -64.546875 C 15.351562 -64.546875 16.601562 -64.570312 17.8125 -64.625 C 19.019531 -64.6875 20.210938 -64.78125 21.390625 -64.90625 L 26.078125 -65.25 L 28.203125 -65.4375 L 28.46875 -63.3125 L 29 -58.09375 L 29.171875 -55.796875 L 26.96875 -55.625 L 21.921875 -55.265625 L 21.75 -53.84375 C 21.632812 -53.257812 21.5625 -52.453125 21.53125 -51.421875 C 21.5 -50.390625 21.484375 -49.109375 21.484375 -47.578125 L 21.484375 -14.765625 C 21.484375 -13.992188 21.484375 -13.285156 21.484375 -12.640625 C 21.484375 -11.992188 21.5 -11.40625 21.53125 -10.875 C 21.5625 -10.34375 21.585938 -9.882812 21.609375 -9.5 C 21.640625 -9.125 21.6875 -8.785156 21.75 -8.484375 L 21.921875 -7.078125 L 26.96875 -6.71875 L 29.265625 -6.546875 L 29 -4.25 L 28.46875 0.625 L 28.203125 2.65625 L 26.171875 2.5625 L 21.484375 2.390625 C 17.890625 2.265625 15.09375 2.203125 13.09375 2.203125 C 11.195312 2.203125 9.128906 2.265625 6.890625 2.390625 L 4.15625 2.5625 L 1.9375 2.65625 L 1.765625 0.53125 L 1.328125 -4.0625 L 1.15625 -6.1875 L 3.265625 -6.453125 L 8.40625 -7.078125 C 8.457031 -7.484375 8.546875 -7.953125 8.671875 -8.484375 C 8.898438 -9.835938 9.015625 -11.046875 9.015625 -12.109375 Z M 9.015625 -12.109375 "/></g></g></g><g fill="#ffffff" fill-opacity="1"><g transform="translate(407.005091, 175.335729)"><g><path d="M 11.9375 -64.546875 L 28.203125 -65.4375 L 28.296875 -65.4375 C 34.953125 -65.4375 40.195312 -63.753906 44.03125 -60.390625 C 47.976562 -56.972656 49.953125 -52.082031 49.953125 -45.71875 C 49.953125 -44.59375 49.863281 -43.5 49.6875 -42.4375 C 49.507812 -41.375 49.242188 -40.34375 48.890625 -39.34375 C 48.535156 -38.34375 48.09375 -37.382812 47.5625 -36.46875 C 47.039062 -35.5625 46.425781 -34.722656 45.71875 -33.953125 C 43.53125 -31.421875 40.785156 -29.476562 37.484375 -28.125 C 41.492188 -20.21875 44.207031 -15.085938 45.625 -12.734375 L 45.796875 -12.5625 C 45.972656 -12.257812 46.382812 -11.648438 47.03125 -10.734375 C 47.6875 -9.828125 48.484375 -8.664062 49.421875 -7.25 L 54.46875 -6.453125 L 56.5 -6.09375 L 56.328125 -4.0625 L 55.96875 0.53125 L 55.796875 2.65625 L 53.671875 2.5625 L 50.40625 2.390625 C 49.164062 2.328125 48.128906 2.28125 47.296875 2.25 C 46.472656 2.21875 45.859375 2.203125 45.453125 2.203125 C 45.035156 2.203125 44.457031 2.234375 43.71875 2.296875 C 42.988281 2.359375 42.117188 2.445312 41.109375 2.5625 L 40.328125 2.65625 L 39.609375 2.203125 L 39.078125 1.859375 L 38.546875 1.5 L 38.28125 0.890625 C 35.988281 -4.359375 34.425781 -7.691406 33.59375 -9.109375 L 33.515625 -9.203125 L 33.515625 -9.28125 L 24.9375 -26.078125 C 23.28125 -26.078125 21.863281 -26.078125 20.6875 -26.078125 L 20.6875 -14.765625 C 20.6875 -11.816406 20.773438 -9.753906 20.953125 -8.578125 L 21.140625 -7.15625 L 25.375 -6.71875 L 27.59375 -6.453125 L 27.328125 -4.25 L 26.796875 0.625 L 26.53125 2.65625 L 24.5 2.5625 L 21.140625 2.390625 C 18.421875 2.265625 15.941406 2.203125 13.703125 2.203125 C 11.523438 2.203125 9.34375 2.351562 7.15625 2.65625 L 3.453125 3 L 1.328125 3.1875 L 1.0625 1.0625 L 0.4375 -3.984375 L 0.171875 -6.1875 L 2.390625 -6.453125 L 7.515625 -7.078125 C 7.578125 -7.484375 7.664062 -7.953125 7.78125 -8.484375 C 8.019531 -9.835938 8.140625 -11.046875 8.140625 -12.109375 L 8.140625 -50.21875 C 8.140625 -50.394531 8.140625 -50.585938 8.140625 -50.796875 C 8.140625 -51.003906 8.125 -51.238281 8.09375 -51.5 C 8.0625 -51.769531 8.015625 -52.066406 7.953125 -52.390625 C 7.898438 -52.710938 7.84375 -53.050781 7.78125 -53.40625 C 7.71875 -53.757812 7.65625 -54.113281 7.59375 -54.46875 C 7.539062 -54.820312 7.484375 -55.117188 7.421875 -55.359375 L 2.296875 -56.140625 L 0.265625 -56.5 L 0.4375 -58.53125 L 0.890625 -62.953125 L 1.15625 -65.171875 L 3.265625 -64.984375 L 6.09375 -64.71875 C 7.21875 -64.664062 8.222656 -64.625 9.109375 -64.59375 C 9.992188 -64.5625 10.789062 -64.546875 11.5 -64.546875 Z M 24.5 -35.015625 C 26.5625 -35.015625 28.359375 -35.25 29.890625 -35.71875 C 31.421875 -36.195312 32.71875 -36.90625 33.78125 -37.84375 C 35.894531 -39.613281 36.953125 -42.265625 36.953125 -45.796875 C 36.953125 -49.335938 35.921875 -51.992188 33.859375 -53.765625 C 31.679688 -55.648438 28.585938 -56.59375 24.578125 -56.59375 C 24.347656 -56.59375 24.039062 -56.578125 23.65625 -56.546875 C 23.269531 -56.515625 22.851562 -56.484375 22.40625 -56.453125 C 21.96875 -56.421875 21.546875 -56.378906 21.140625 -56.328125 L 20.953125 -54.296875 C 20.835938 -53.640625 20.765625 -52.75 20.734375 -51.625 C 20.703125 -50.507812 20.6875 -49.160156 20.6875 -47.578125 L 20.6875 -35.109375 C 21.8125 -35.046875 23.082031 -35.015625 24.5 -35.015625 Z M 24.5 -35.015625 "/></g></g></g></g></g></g><g clip-path="url(#f8ab89c211)"><g transform="matrix(1, 0, 0, 1, 85, 0.000000000000028422)"><g clip-path="url(#e97a4b6779)"><g fill="#ffffff" fill-opacity="1"><g transform="translate(47.924291, 603.268477)"><g><path d="M 680.734375 100.25 C 683.203125 100.25 685.675781 100.25 688.15625 100.25 L 688.15625 106.4375 C 676.601562 108.09375 663.707031 108.921875 649.46875 108.921875 C 635.238281 108.921875 617.707031 105.820312 596.875 99.625 C 576.039062 93.4375 557.164062 81.890625 540.25 64.984375 C 505.59375 30.328125 484.550781 -14.640625 477.125 -69.921875 L 439.375 -345.3125 L 310.65625 -54.453125 C 299.101562 -29.285156 292.09375 -8.25 289.625 8.65625 L 283.4375 8.65625 L 123.15625 -339.75 L 95.921875 -32.1875 C 95.097656 -25.164062 97.265625 -18.972656 102.421875 -13.609375 C 107.578125 -8.242188 113.25 -5.5625 119.4375 -5.5625 L 129.34375 -5.5625 L 129.34375 0 L 9.28125 0 L 9.28125 -6.1875 L 19.1875 -6.1875 C 30.320312 -6.1875 40.117188 -9.585938 48.578125 -16.390625 C 57.035156 -23.203125 62.296875 -32.175781 64.359375 -43.3125 L 103.34375 -381.203125 C 67.039062 -452.578125 23.515625 -488.265625 -27.234375 -488.265625 C -31.765625 -488.265625 -36.507812 -488.0625 -41.46875 -487.65625 L -41.46875 -493.84375 C -30.320312 -496.726562 -21.242188 -498.171875 -14.234375 -498.171875 C -7.222656 -498.171875 0.40625 -497.859375 8.65625 -497.234375 C 16.914062 -496.617188 26.613281 -494.660156 37.75 -491.359375 C 48.882812 -488.054688 59.398438 -483.207031 69.296875 -476.8125 C 79.203125 -470.425781 87.867188 -463.828125 95.296875 -457.015625 C 102.722656 -450.210938 109.738281 -442.679688 116.34375 -434.421875 C 127.476562 -419.578125 136.347656 -405.347656 142.953125 -391.734375 L 292.09375 -68.6875 L 458.5625 -441.859375 L 464.140625 -441.859375 L 521.6875 -75.5 C 530.351562 -17.738281 549.019531 25.988281 577.6875 55.6875 C 606.363281 85.394531 640.710938 100.25 680.734375 100.25 Z M 680.734375 100.25 "/></g></g></g></g></g></g></g></g></g></g></g></svg>