<svg xmlns="http://www.w3.org/2000/svg" xmlns:xlink="http://www.w3.org/1999/xlink" width="500" height="500" viewBox="0 0 375 374.999991" preserveAspectRatio="xMidYMid meet" version="1.0">
  <defs>
    <g/>
    <clipPath id="4796d82562">
      <path d="M 70.542969 122.957031 L 307.542969 122.957031 L 307.542969 253.457031 L 70.542969 253.457031 Z M 70.542969 122.957031 " clip-rule="nonzero"/>
    </clipPath>
    <clipPath id="0510a1f5b3">
      <path d="M 0.542969 0.957031 L 237.273438 0.957031 L 237.273438 131.441406 L 0.542969 131.441406 Z M 0.542969 0.957031 " clip-rule="nonzero"/>
    </clipPath>
    <clipPath id="a3dabb74d3">
      <rect x="0" y="0" width="238" height="132"/>
    </clipPath>
  </defs>
  <g clip-path="url(#4796d82562)">
    <g transform="matrix(1, 0, 0, 1, 70, 122)">
      <g clip-path="url(#a3dabb74d3)">
        <g clip-path="url(#0510a1f5b3)">
          <path fill="#ffffff" fill-opacity="1" fill-rule="nonzero" d="M 196.117188 72.777344 C 197.558594 73.199219 199.046875 73.519531 200.558594 73.734375 C 202.054688 73.945312 203.574219 74.054688 205.109375 74.054688 C 213.976562 74.054688 222.007812 70.460938 227.820312 64.648438 C 233.628906 58.835938 237.226562 50.808594 237.226562 41.9375 C 237.226562 33.070312 233.628906 25.039062 227.820312 19.230469 C 222.007812 13.417969 213.976562 9.820312 205.109375 9.820312 C 200.179688 9.820312 195.507812 10.933594 191.328125 12.921875 C 186.992188 14.984375 183.1875 17.996094 180.1875 21.683594 C 171.101562 32.691406 163.695312 44.25 156.300781 55.796875 C 141.058594 79.589844 125.832031 103.347656 96.082031 121.910156 C 93.363281 123.390625 90.523438 124.679688 87.582031 125.757812 C 80.773438 128.253906 73.410156 129.617188 65.726562 129.617188 C 48.1875 129.617188 32.308594 122.507812 20.8125 111.015625 C 9.320312 99.519531 2.210938 83.640625 2.210938 66.101562 C 2.210938 48.558594 9.320312 32.679688 20.8125 21.1875 C 31.6875 10.3125 46.480469 3.367188 62.894531 2.644531 C 61.605469 3.578125 60.765625 5.097656 60.765625 6.816406 C 60.765625 9.65625 63.066406 11.957031 65.90625 11.957031 C 68.746094 11.957031 71.050781 9.65625 71.050781 6.816406 C 71.050781 4.34375 69.304688 2.277344 66.980469 1.785156 L 66.992188 0.976562 L 65.730469 0.960938 C 47.746094 0.960938 31.457031 8.253906 19.671875 20.042969 C 7.882812 31.828125 0.589844 48.113281 0.589844 66.101562 C 0.589844 84.089844 7.882812 100.375 19.671875 112.164062 C 31.457031 123.953125 47.742188 131.242188 65.730469 131.242188 C 73.601562 131.242188 81.152344 129.84375 88.144531 127.285156 C 95.390625 124.628906 102.03125 120.722656 107.808594 115.828125 C 130.929688 98.398438 144.289062 77.550781 157.664062 56.675781 C 165.042969 45.160156 172.425781 33.632812 181.441406 22.710938 L 180.816406 22.199219 L 181.445312 22.707031 C 184.292969 19.207031 187.902344 16.351562 192.023438 14.390625 C 195.984375 12.507812 200.425781 11.449219 205.113281 11.449219 C 213.535156 11.449219 221.160156 14.863281 226.675781 20.382812 C 232.195312 25.898438 235.609375 33.523438 235.609375 41.945312 C 235.609375 50.367188 232.195312 57.992188 226.675781 63.511719 C 221.160156 69.03125 213.535156 72.441406 205.113281 72.441406 C 203.632812 72.441406 202.191406 72.339844 200.785156 72.140625 C 199.34375 71.9375 197.933594 71.628906 196.570312 71.234375 L 196.121094 72.785156 Z M 196.117188 72.777344 "/>
        </g>
      </g>
    </g>
  </g>
</svg>

