<svg xmlns="http://www.w3.org/2000/svg" xmlns:xlink="http://www.w3.org/1999/xlink" width="500" zoomAndPan="magnify" viewBox="0 0 375 374.999991" height="500" preserveAspectRatio="xMidYMid meet" version="1.0"><defs><g/><clipPath id="4796d82562"><path d="M 70.542969 122.957031 L 307.542969 122.957031 L 307.542969 253.457031 L 70.542969 253.457031 Z M 70.542969 122.957031 " clip-rule="nonzero"/></clipPath><clipPath id="0510a1f5b3"><path d="M 0.542969 0.957031 L 237.273438 0.957031 L 237.273438 131.441406 L 0.542969 131.441406 Z M 0.542969 0.957031 " clip-rule="nonzero"/></clipPath><clipPath id="a3dabb74d3"><rect x="0" width="238" y="0" height="132"/></clipPath></defs><g clip-path="url(#4796d82562)"><g transform="matrix(1, 0, 0, 1, 70, 122)"><g clip-path="url(#a3dabb74d3)"><g clip-path="url(#0510a1f5b3)"><path fill="#ffffff" d="M 196.117188 72.777344 C 197.558594 73.199219 199.046875 73.519531 200.558594 73.734375 C 202.054688 73.945312 203.574219 74.054688 205.109375 74.054688 C 213.976562 74.054688 222.007812 70.460938 227.820312 64.648438 C 233.628906 58.835938 237.226562 50.808594 237.226562 41.9375 C 237.226562 33.070312 233.628906 25.039062 227.820312 19.230469 C 222.007812 13.417969 213.976562 9.820312 205.109375 9.820312 C 200.179688 9.820312 195.507812 10.933594 191.328125 12.921875 C 186.992188 14.984375 183.1875 17.996094 180.1875 21.683594 C 171.101562 32.691406 163.695312 44.25 156.300781 55.796875 C 141.058594 79.589844 125.832031 103.347656 96.082031 121.910156 C 93.363281 123.390625 90.523438 124.679688 87.582031 125.757812 C 80.773438 128.253906 73.410156 129.617188 65.726562 129.617188 C 48.1875 129.617188 32.308594 122.507812 20.8125 111.015625 C 9.320312 99.519531 2.210938 83.640625 2.210938 66.101562 C 2.210938 48.558594 9.320312 32.679688 20.8125 21.1875 C 31.6875 10.3125 46.480469 3.367188 62.894531 2.644531 C 61.605469 3.578125 60.765625 5.097656 60.765625 6.816406 C 60.765625 9.65625 63.066406 11.957031 65.90625 11.957031 C 68.746094 11.957031 71.050781 9.65625 71.050781 6.816406 C 71.050781 4.34375 69.304688 2.277344 66.980469 1.785156 L 66.992188 0.976562 L 65.730469 0.960938 C 47.746094 0.960938 31.457031 8.253906 19.671875 20.042969 C 7.882812 31.828125 0.589844 48.113281 0.589844 66.101562 C 0.589844 84.089844 7.882812 100.375 19.671875 112.164062 C 31.457031 123.953125 47.742188 131.242188 65.730469 131.242188 C 73.601562 131.242188 81.152344 129.84375 88.144531 127.285156 C 95.390625 124.628906 102.03125 120.722656 107.808594 115.828125 C 130.929688 98.398438 144.289062 77.550781 157.664062 56.675781 C 165.042969 45.160156 172.425781 33.632812 181.441406 22.710938 L 180.816406 22.199219 L 181.445312 22.707031 C 184.292969 19.207031 187.902344 16.351562 192.023438 14.390625 C 195.984375 12.507812 200.425781 11.449219 205.113281 11.449219 C 213.535156 11.449219 221.160156 14.863281 226.675781 20.382812 C 232.195312 25.898438 235.609375 33.523438 235.609375 41.945312 C 235.609375 50.367188 232.195312 57.992188 226.675781 63.511719 C 221.160156 69.03125 213.535156 72.441406 205.113281 72.441406 C 203.632812 72.441406 202.191406 72.339844 200.785156 72.140625 C 199.34375 71.9375 197.933594 71.628906 196.570312 71.234375 L 196.121094 72.785156 Z M 196.117188 72.777344 " fill-opacity="1" fill-rule="nonzero"/></g></g></g></g><g fill="#ffffff" fill-opacity="1"><g transform="translate(219.129672, 214.350089)"><g><path d="M 7.984375 -0.640625 L 8.046875 -1.8125 L 7.8125 -5.90625 L 5.28125 0 L 4.859375 0 L 2.328125 -5.90625 L 2.125 -1.8125 C 2.125 -1.664062 2.132812 -1.421875 2.15625 -1.078125 L 2.1875 -0.640625 L 3.0625 -0.5625 L 2.984375 0.046875 L 2.5 0.015625 C 2.09375 0.00390625 1.765625 0 1.515625 0 C 1.273438 0 1.007812 0.00390625 0.71875 0.015625 L 0.375 0.046875 L 0.3125 -0.53125 L 1.171875 -0.640625 C 1.179688 -0.660156 1.191406 -0.710938 1.203125 -0.796875 C 1.222656 -0.878906 1.238281 -0.941406 1.25 -0.984375 C 1.269531 -1.035156 1.289062 -1.117188 1.3125 -1.234375 C 1.332031 -1.347656 1.351562 -1.425781 1.375 -1.46875 L 1.65625 -6.34375 C 1.65625 -6.457031 1.640625 -6.609375 1.609375 -6.796875 C 1.578125 -6.984375 1.554688 -7.128906 1.546875 -7.234375 L 0.703125 -7.328125 L 0.765625 -7.953125 L 1.28125 -7.90625 C 1.550781 -7.875 1.78125 -7.859375 1.96875 -7.859375 C 2.164062 -7.859375 2.375 -7.867188 2.59375 -7.890625 L 2.890625 -7.90625 L 2.953125 -7.84375 L 3.21875 -6.921875 C 3.40625 -6.242188 3.507812 -5.875 3.53125 -5.8125 L 5.28125 -1.609375 L 7.0625 -5.984375 C 7.101562 -6.085938 7.203125 -6.390625 7.359375 -6.890625 C 7.515625 -7.390625 7.609375 -7.707031 7.640625 -7.84375 L 7.703125 -7.90625 L 7.90625 -7.890625 C 8.070312 -7.867188 8.253906 -7.859375 8.453125 -7.859375 C 8.648438 -7.859375 8.867188 -7.875 9.109375 -7.90625 L 9.609375 -7.953125 L 9.6875 -7.296875 L 8.8125 -7.234375 L 8.78125 -6.875 C 8.757812 -6.75 8.75 -6.570312 8.75 -6.34375 L 9.125 -1.46875 C 9.132812 -1.414062 9.160156 -1.3125 9.203125 -1.15625 C 9.242188 -1 9.269531 -0.878906 9.28125 -0.796875 C 9.300781 -0.710938 9.316406 -0.660156 9.328125 -0.640625 L 10.1875 -0.53125 L 10.125 0.046875 L 9.765625 0.015625 C 9.484375 0.00390625 9.210938 0 8.953125 0 C 8.691406 0 8.316406 0.00390625 7.828125 0.015625 L 7.1875 0.046875 L 7.125 -0.5625 Z M 7.984375 -0.640625 "/></g></g></g><g fill="#ffffff" fill-opacity="1"><g transform="translate(237.574159, 214.350089)"><g><path d="M 4.15625 -8.03125 C 5.34375 -8.03125 6.25 -7.65625 6.875 -6.90625 C 7.507812 -6.164062 7.828125 -5.171875 7.828125 -3.921875 C 7.828125 -2.679688 7.507812 -1.6875 6.875 -0.9375 C 6.25 -0.195312 5.34375 0.171875 4.15625 0.171875 C 2.976562 0.171875 2.070312 -0.195312 1.4375 -0.9375 C 0.8125 -1.6875 0.5 -2.679688 0.5 -3.921875 C 0.5 -5.171875 0.8125 -6.164062 1.4375 -6.90625 C 2.070312 -7.65625 2.976562 -8.03125 4.15625 -8.03125 Z M 2.328125 -6.453125 C 1.910156 -5.796875 1.703125 -4.953125 1.703125 -3.921875 C 1.703125 -2.898438 1.910156 -2.0625 2.328125 -1.40625 C 2.753906 -0.75 3.363281 -0.421875 4.15625 -0.421875 C 4.957031 -0.421875 5.566406 -0.75 5.984375 -1.40625 C 6.410156 -2.0625 6.625 -2.898438 6.625 -3.921875 C 6.625 -4.953125 6.410156 -5.796875 5.984375 -6.453125 C 5.566406 -7.109375 4.957031 -7.4375 4.15625 -7.4375 C 3.363281 -7.4375 2.753906 -7.109375 2.328125 -6.453125 Z M 2.328125 -6.453125 "/></g></g></g><g fill="#ffffff" fill-opacity="1"><g transform="translate(253.843182, 214.350089)"><g><path d="M 3.671875 -4.21875 L 6.03125 -4.265625 L 6.03125 -6.34375 C 6.03125 -6.445312 6.015625 -6.59375 5.984375 -6.78125 C 5.953125 -6.976562 5.929688 -7.128906 5.921875 -7.234375 L 5.0625 -7.3125 L 5.125 -7.921875 L 5.484375 -7.890625 C 5.765625 -7.867188 6.066406 -7.859375 6.390625 -7.859375 C 6.722656 -7.859375 7.046875 -7.875 7.359375 -7.90625 L 7.953125 -7.953125 L 8.015625 -7.296875 L 7.15625 -7.234375 L 7.109375 -6.828125 C 7.085938 -6.671875 7.078125 -6.394531 7.078125 -6 L 7.078125 -1.859375 C 7.078125 -1.460938 7.085938 -1.1875 7.109375 -1.03125 L 7.15625 -0.640625 L 8.015625 -0.5625 L 7.953125 0.046875 L 7.359375 0.015625 C 6.890625 0.00390625 6.53125 0 6.28125 0 C 6.03125 0 5.765625 0.00390625 5.484375 0.015625 L 5.125 0.046875 L 5.0625 -0.5625 L 5.921875 -0.640625 C 5.929688 -0.703125 5.953125 -0.828125 5.984375 -1.015625 C 6.015625 -1.210938 6.03125 -1.382812 6.03125 -1.53125 L 6.03125 -3.65625 L 2.328125 -3.625 L 2.328125 -1.859375 C 2.328125 -1.460938 2.335938 -1.1875 2.359375 -1.03125 L 2.40625 -0.640625 L 3.28125 -0.5625 L 3.21875 0.046875 L 2.671875 0.015625 C 2.253906 0.00390625 1.90625 0 1.625 0 C 1.34375 0 1.070312 0.0195312 0.8125 0.0625 L 0.40625 0.09375 L 0.328125 -0.53125 L 1.1875 -0.640625 C 1.195312 -0.703125 1.21875 -0.828125 1.25 -1.015625 C 1.289062 -1.210938 1.3125 -1.382812 1.3125 -1.53125 L 1.3125 -6.34375 C 1.3125 -6.445312 1.289062 -6.59375 1.25 -6.78125 C 1.21875 -6.976562 1.195312 -7.128906 1.1875 -7.234375 L 0.328125 -7.359375 L 0.390625 -7.921875 L 0.75 -7.890625 C 1.03125 -7.867188 1.335938 -7.859375 1.671875 -7.859375 C 2.003906 -7.859375 2.320312 -7.875 2.625 -7.90625 L 3.21875 -7.953125 L 3.28125 -7.296875 L 2.40625 -7.234375 L 2.359375 -6.828125 C 2.335938 -6.671875 2.328125 -6.394531 2.328125 -6 L 2.328125 -4.265625 C 2.515625 -4.234375 2.960938 -4.21875 3.671875 -4.21875 Z M 3.671875 -4.21875 "/></g></g></g><g fill="#ffffff" fill-opacity="1"><g transform="translate(270.145679, 214.350089)"><g><path d="M 3.484375 -7.859375 L 4.078125 -7.984375 L 5.3125 -4.796875 C 5.488281 -4.335938 5.679688 -3.832031 5.890625 -3.28125 C 6.335938 -2.101562 6.578125 -1.484375 6.609375 -1.421875 C 6.660156 -1.242188 6.800781 -0.972656 7.03125 -0.609375 L 7.59375 -0.546875 L 7.5625 0.046875 L 6.796875 0.015625 C 6.242188 0.00390625 5.894531 0 5.75 0 C 5.613281 0 5.445312 0.00390625 5.25 0.015625 L 4.984375 0.046875 L 4.9375 -0.546875 L 5.71875 -0.625 C 5.664062 -0.988281 5.613281 -1.257812 5.5625 -1.4375 L 5.109375 -2.59375 L 2.328125 -2.5625 L 1.875 -1.28125 C 1.820312 -1.050781 1.78125 -0.835938 1.75 -0.640625 L 1.765625 -0.640625 L 2.640625 -0.546875 L 2.5625 0.046875 L 1.875 0.015625 C 1.351562 0.00390625 1 0 0.8125 0 C 0.632812 0 0.460938 0.00390625 0.296875 0.015625 L 0.09375 0.046875 L 0.0625 -0.53125 L 0.6875 -0.625 C 1.101562 -1.375 1.3125 -1.765625 1.3125 -1.796875 Z M 2.546875 -3.171875 C 2.941406 -3.148438 3.222656 -3.140625 3.390625 -3.140625 C 3.566406 -3.140625 3.820312 -3.144531 4.15625 -3.15625 C 4.488281 -3.164062 4.734375 -3.171875 4.890625 -3.171875 L 3.671875 -6.34375 Z M 2.546875 -3.171875 "/></g></g></g><g fill="#ffffff" fill-opacity="1"><g transform="translate(285.745336, 214.350089)"><g><path d="M 7.984375 -0.640625 L 8.046875 -1.8125 L 7.8125 -5.90625 L 5.28125 0 L 4.859375 0 L 2.328125 -5.90625 L 2.125 -1.8125 C 2.125 -1.664062 2.132812 -1.421875 2.15625 -1.078125 L 2.1875 -0.640625 L 3.0625 -0.5625 L 2.984375 0.046875 L 2.5 0.015625 C 2.09375 0.00390625 1.765625 0 1.515625 0 C 1.273438 0 1.007812 0.00390625 0.71875 0.015625 L 0.375 0.046875 L 0.3125 -0.53125 L 1.171875 -0.640625 C 1.179688 -0.660156 1.191406 -0.710938 1.203125 -0.796875 C 1.222656 -0.878906 1.238281 -0.941406 1.25 -0.984375 C 1.269531 -1.035156 1.289062 -1.117188 1.3125 -1.234375 C 1.332031 -1.347656 1.351562 -1.425781 1.375 -1.46875 L 1.65625 -6.34375 C 1.65625 -6.457031 1.640625 -6.609375 1.609375 -6.796875 C 1.578125 -6.984375 1.554688 -7.128906 1.546875 -7.234375 L 0.703125 -7.328125 L 0.765625 -7.953125 L 1.28125 -7.90625 C 1.550781 -7.875 1.78125 -7.859375 1.96875 -7.859375 C 2.164062 -7.859375 2.375 -7.867188 2.59375 -7.890625 L 2.890625 -7.90625 L 2.953125 -7.84375 L 3.21875 -6.921875 C 3.40625 -6.242188 3.507812 -5.875 3.53125 -5.8125 L 5.28125 -1.609375 L 7.0625 -5.984375 C 7.101562 -6.085938 7.203125 -6.390625 7.359375 -6.890625 C 7.515625 -7.390625 7.609375 -7.707031 7.640625 -7.84375 L 7.703125 -7.90625 L 7.90625 -7.890625 C 8.070312 -7.867188 8.253906 -7.859375 8.453125 -7.859375 C 8.648438 -7.859375 8.867188 -7.875 9.109375 -7.90625 L 9.609375 -7.953125 L 9.6875 -7.296875 L 8.8125 -7.234375 L 8.78125 -6.875 C 8.757812 -6.75 8.75 -6.570312 8.75 -6.34375 L 9.125 -1.46875 C 9.132812 -1.414062 9.160156 -1.3125 9.203125 -1.15625 C 9.242188 -1 9.269531 -0.878906 9.28125 -0.796875 C 9.300781 -0.710938 9.316406 -0.660156 9.328125 -0.640625 L 10.1875 -0.53125 L 10.125 0.046875 L 9.765625 0.015625 C 9.484375 0.00390625 9.210938 0 8.953125 0 C 8.691406 0 8.316406 0.00390625 7.828125 0.015625 L 7.1875 0.046875 L 7.125 -0.5625 Z M 7.984375 -0.640625 "/></g></g></g><g fill="#ffffff" fill-opacity="1"><g transform="translate(304.189823, 214.350089)"><g><path d="M 3.484375 -7.859375 L 4.078125 -7.984375 L 5.3125 -4.796875 C 5.488281 -4.335938 5.679688 -3.832031 5.890625 -3.28125 C 6.335938 -2.101562 6.578125 -1.484375 6.609375 -1.421875 C 6.660156 -1.242188 6.800781 -0.972656 7.03125 -0.609375 L 7.59375 -0.546875 L 7.5625 0.046875 L 6.796875 0.015625 C 6.242188 0.00390625 5.894531 0 5.75 0 C 5.613281 0 5.445312 0.00390625 5.25 0.015625 L 4.984375 0.046875 L 4.9375 -0.546875 L 5.71875 -0.625 C 5.664062 -0.988281 5.613281 -1.257812 5.5625 -1.4375 L 5.109375 -2.59375 L 2.328125 -2.5625 L 1.875 -1.28125 C 1.820312 -1.050781 1.78125 -0.835938 1.75 -0.640625 L 1.765625 -0.640625 L 2.640625 -0.546875 L 2.5625 0.046875 L 1.875 0.015625 C 1.351562 0.00390625 1 0 0.8125 0 C 0.632812 0 0.460938 0.00390625 0.296875 0.015625 L 0.09375 0.046875 L 0.0625 -0.53125 L 0.6875 -0.625 C 1.101562 -1.375 1.3125 -1.765625 1.3125 -1.796875 Z M 2.546875 -3.171875 C 2.941406 -3.148438 3.222656 -3.140625 3.390625 -3.140625 C 3.566406 -3.140625 3.820312 -3.144531 4.15625 -3.15625 C 4.488281 -3.164062 4.734375 -3.171875 4.890625 -3.171875 L 3.671875 -6.34375 Z M 2.546875 -3.171875 "/></g></g></g><g fill="#ffffff" fill-opacity="1"><g transform="translate(319.789481, 214.350089)"><g><path d="M 3.578125 0.125 L 1.328125 0.015625 C 1.035156 0.0234375 0.832031 0.0390625 0.71875 0.0625 L 0.40625 0.09375 L 0.328125 -0.53125 L 1.1875 -0.640625 C 1.195312 -0.703125 1.21875 -0.828125 1.25 -1.015625 C 1.289062 -1.210938 1.3125 -1.382812 1.3125 -1.53125 L 1.3125 -6.34375 C 1.3125 -6.445312 1.289062 -6.59375 1.25 -6.78125 C 1.21875 -6.976562 1.195312 -7.128906 1.1875 -7.234375 L 0.328125 -7.359375 L 0.390625 -7.921875 L 0.75 -7.890625 C 1.03125 -7.867188 1.265625 -7.859375 1.453125 -7.859375 L 1.5 -7.859375 C 1.707031 -7.859375 2.035156 -7.878906 2.484375 -7.921875 C 2.941406 -7.960938 3.304688 -7.984375 3.578125 -7.984375 C 4.804688 -7.984375 5.753906 -7.617188 6.421875 -6.890625 C 7.097656 -6.171875 7.4375 -5.191406 7.4375 -3.953125 C 7.4375 -2.710938 7.085938 -1.722656 6.390625 -0.984375 C 5.703125 -0.242188 4.765625 0.125 3.578125 0.125 Z M 2.328125 -1.859375 L 2.40625 -0.59375 C 2.664062 -0.5625 3.0625 -0.546875 3.59375 -0.546875 C 4.488281 -0.546875 5.164062 -0.859375 5.625 -1.484375 C 6.09375 -2.117188 6.328125 -2.929688 6.328125 -3.921875 C 6.328125 -4.910156 6.09375 -5.722656 5.625 -6.359375 C 5.164062 -6.992188 4.488281 -7.3125 3.59375 -7.3125 C 3.101562 -7.3125 2.707031 -7.289062 2.40625 -7.25 C 2.351562 -6.96875 2.328125 -6.550781 2.328125 -6 Z M 2.328125 -1.859375 "/></g></g></g><g fill="#ffffff" fill-opacity="1"><g transform="translate(219.129672, 229.350088)"><g><path d="M 3.890625 -2.9375 C 3.648438 -3.125 3.375 -3.296875 3.0625 -3.453125 L 2.5625 -3.703125 C 2.53125 -3.710938 2.503906 -3.71875 2.484375 -3.71875 C 1.878906 -4.019531 1.40625 -4.335938 1.0625 -4.671875 C 0.726562 -5.003906 0.5625 -5.460938 0.5625 -6.046875 C 0.5625 -6.640625 0.785156 -7.117188 1.234375 -7.484375 C 1.691406 -7.847656 2.234375 -8.03125 2.859375 -8.03125 C 3.492188 -8.03125 4.289062 -7.910156 5.25 -7.671875 L 5.09375 -6.03125 L 4.421875 -6.109375 L 4.421875 -6.546875 C 4.421875 -6.617188 4.367188 -6.828125 4.265625 -7.171875 C 3.878906 -7.335938 3.472656 -7.421875 3.046875 -7.421875 C 2.617188 -7.421875 2.285156 -7.3125 2.046875 -7.09375 C 1.804688 -6.875 1.6875 -6.570312 1.6875 -6.1875 C 1.6875 -5.789062 1.875 -5.453125 2.25 -5.171875 C 2.507812 -4.984375 2.785156 -4.816406 3.078125 -4.671875 C 3.367188 -4.535156 3.519531 -4.460938 3.53125 -4.453125 C 3.882812 -4.273438 4.160156 -4.117188 4.359375 -3.984375 C 4.554688 -3.859375 4.765625 -3.707031 4.984375 -3.53125 C 5.410156 -3.144531 5.625 -2.617188 5.625 -1.953125 C 5.625 -1.285156 5.375 -0.765625 4.875 -0.390625 C 4.375 -0.015625 3.773438 0.171875 3.078125 0.171875 C 2.390625 0.171875 1.753906 0.0703125 1.171875 -0.125 C 0.921875 -0.207031 0.695312 -0.304688 0.5 -0.421875 L 0.671875 -2.140625 L 1.40625 -2.078125 L 1.40625 -1.546875 C 1.40625 -1.429688 1.445312 -1.179688 1.53125 -0.796875 C 2 -0.597656 2.46875 -0.5 2.9375 -0.5 C 3.414062 -0.5 3.785156 -0.617188 4.046875 -0.859375 C 4.316406 -1.109375 4.453125 -1.445312 4.453125 -1.875 C 4.453125 -2.300781 4.265625 -2.65625 3.890625 -2.9375 Z M 3.890625 -2.9375 "/></g></g></g><g fill="#ffffff" fill-opacity="1"><g transform="translate(233.200926, 229.350088)"><g><path d="M 2.046875 -0.53125 L 2.90625 -0.640625 C 2.914062 -0.703125 2.9375 -0.828125 2.96875 -1.015625 C 3 -1.210938 3.015625 -1.382812 3.015625 -1.53125 L 3.015625 -3.015625 L 1.328125 -6.234375 C 1.140625 -6.484375 0.863281 -6.8125 0.5 -7.21875 L 0.0625 -7.265625 L 0.09375 -7.921875 L 0.546875 -7.890625 C 0.890625 -7.867188 1.207031 -7.859375 1.5 -7.859375 C 1.789062 -7.859375 2.078125 -7.875 2.359375 -7.90625 L 2.796875 -7.9375 L 2.8125 -7.234375 L 2.109375 -7.171875 C 2.378906 -6.429688 2.546875 -6 2.609375 -5.875 L 3.640625 -3.859375 L 4.953125 -6.453125 C 4.992188 -6.523438 5.082031 -6.773438 5.21875 -7.203125 L 4.5 -7.296875 L 4.5625 -7.9375 L 4.953125 -7.90625 C 5.097656 -7.875 5.351562 -7.859375 5.71875 -7.859375 C 6.082031 -7.859375 6.40625 -7.875 6.6875 -7.90625 L 7.125 -7.9375 L 7.140625 -7.265625 L 6.375 -7.15625 L 5.53125 -6.09375 L 4.0625 -3.25 L 4.0625 -1.859375 C 4.0625 -1.460938 4.070312 -1.1875 4.09375 -1.03125 L 4.140625 -0.640625 L 5.015625 -0.5625 L 4.9375 0.046875 L 4.34375 0.015625 C 3.882812 0.00390625 3.523438 0 3.265625 0 C 3.015625 0 2.75 0.00390625 2.46875 0.015625 L 2.109375 0.046875 Z M 2.046875 -0.53125 "/></g></g></g><g fill="#ffffff" fill-opacity="1"><g transform="translate(248.343175, 229.350088)"><g><path d="M 3.484375 -7.859375 L 4.078125 -7.984375 L 5.3125 -4.796875 C 5.488281 -4.335938 5.679688 -3.832031 5.890625 -3.28125 C 6.335938 -2.101562 6.578125 -1.484375 6.609375 -1.421875 C 6.660156 -1.242188 6.800781 -0.972656 7.03125 -0.609375 L 7.59375 -0.546875 L 7.5625 0.046875 L 6.796875 0.015625 C 6.242188 0.00390625 5.894531 0 5.75 0 C 5.613281 0 5.445312 0.00390625 5.25 0.015625 L 4.984375 0.046875 L 4.9375 -0.546875 L 5.71875 -0.625 C 5.664062 -0.988281 5.613281 -1.257812 5.5625 -1.4375 L 5.109375 -2.59375 L 2.328125 -2.5625 L 1.875 -1.28125 C 1.820312 -1.050781 1.78125 -0.835938 1.75 -0.640625 L 1.765625 -0.640625 L 2.640625 -0.546875 L 2.5625 0.046875 L 1.875 0.015625 C 1.351562 0.00390625 1 0 0.8125 0 C 0.632812 0 0.460938 0.00390625 0.296875 0.015625 L 0.09375 0.046875 L 0.0625 -0.53125 L 0.6875 -0.625 C 1.101562 -1.375 1.3125 -1.765625 1.3125 -1.796875 Z M 2.546875 -3.171875 C 2.941406 -3.148438 3.222656 -3.140625 3.390625 -3.140625 C 3.566406 -3.140625 3.820312 -3.144531 4.15625 -3.15625 C 4.488281 -3.164062 4.734375 -3.171875 4.890625 -3.171875 L 3.671875 -6.34375 Z M 2.546875 -3.171875 "/></g></g></g><g fill="#ffffff" fill-opacity="1"><g transform="translate(263.942833, 229.350088)"><g><path d="M 2.4375 -3.9375 L 4.46875 -6.4375 L 4.921875 -7.234375 L 4.3125 -7.328125 L 4.375 -7.921875 L 4.703125 -7.890625 C 4.960938 -7.867188 5.25 -7.859375 5.5625 -7.859375 C 5.882812 -7.859375 6.179688 -7.875 6.453125 -7.90625 L 6.953125 -7.953125 L 7.015625 -7.296875 L 6.1875 -7.234375 C 5.945312 -7.023438 5.554688 -6.644531 5.015625 -6.09375 L 3.53125 -4.125 C 3.644531 -3.988281 3.976562 -3.59375 4.53125 -2.9375 C 5.082031 -2.289062 5.515625 -1.789062 5.828125 -1.4375 C 6.171875 -1.09375 6.476562 -0.820312 6.75 -0.625 L 7.53125 -0.5625 L 7.46875 0.046875 L 6.875 0.015625 C 6.414062 0.00390625 6.0625 0 5.8125 0 C 5.5625 0 5.296875 0.00390625 5.015625 0.015625 L 4.65625 0.046875 L 4.59375 -0.53125 L 5.09375 -0.59375 C 4.769531 -1.144531 4.5 -1.554688 4.28125 -1.828125 C 4.1875 -1.921875 4.019531 -2.101562 3.78125 -2.375 C 3.550781 -2.65625 3.378906 -2.859375 3.265625 -2.984375 Z M 1.3125 -1.53125 L 1.3125 -6.34375 C 1.3125 -6.445312 1.289062 -6.59375 1.25 -6.78125 C 1.21875 -6.976562 1.195312 -7.128906 1.1875 -7.234375 L 0.328125 -7.328125 L 0.390625 -7.921875 L 0.75 -7.890625 C 1.03125 -7.867188 1.332031 -7.859375 1.65625 -7.859375 C 1.988281 -7.859375 2.304688 -7.875 2.609375 -7.90625 L 3.203125 -7.953125 L 3.265625 -7.296875 L 2.40625 -7.234375 L 2.359375 -6.828125 C 2.335938 -6.671875 2.328125 -6.394531 2.328125 -6 L 2.328125 -1.859375 C 2.328125 -1.460938 2.335938 -1.1875 2.359375 -1.03125 L 2.40625 -0.640625 L 3.265625 -0.5625 L 3.203125 0.046875 L 2.609375 0.015625 C 2.148438 0.00390625 1.796875 0 1.546875 0 C 1.296875 0 1.03125 0.00390625 0.75 0.015625 L 0.390625 0.046875 L 0.328125 -0.53125 L 1.1875 -0.640625 C 1.195312 -0.703125 1.21875 -0.828125 1.25 -1.015625 C 1.289062 -1.210938 1.3125 -1.382812 1.3125 -1.53125 Z M 1.3125 -1.53125 "/></g></g></g><g fill="#ffffff" fill-opacity="1"><g transform="translate(279.475554, 229.350088)"><g><path d="M 1.421875 -1.53125 L 1.421875 -6.34375 C 1.421875 -6.445312 1.398438 -6.59375 1.359375 -6.78125 C 1.328125 -6.976562 1.3125 -7.128906 1.3125 -7.234375 L 0.453125 -7.328125 L 0.5 -7.921875 L 0.859375 -7.890625 C 1.140625 -7.867188 1.441406 -7.859375 1.765625 -7.859375 C 2.097656 -7.859375 2.414062 -7.875 2.71875 -7.90625 L 3.3125 -7.953125 L 3.375 -7.296875 L 2.515625 -7.234375 L 2.46875 -6.828125 C 2.445312 -6.671875 2.4375 -6.394531 2.4375 -6 L 2.4375 -1.859375 C 2.4375 -1.460938 2.445312 -1.1875 2.46875 -1.03125 L 2.515625 -0.640625 L 3.375 -0.5625 L 3.3125 0.046875 L 2.71875 0.015625 C 2.257812 0.00390625 1.90625 0 1.65625 0 C 1.40625 0 1.140625 0.00390625 0.859375 0.015625 L 0.5 0.046875 L 0.453125 -0.53125 L 1.3125 -0.640625 C 1.3125 -0.703125 1.328125 -0.828125 1.359375 -1.015625 C 1.398438 -1.210938 1.421875 -1.382812 1.421875 -1.53125 Z M 1.421875 -1.53125 "/></g></g></g><g fill="#ffffff" fill-opacity="1"><g transform="translate(291.248629, 229.350088)"><g><path d="M 1.515625 -7.859375 L 3.5625 -7.984375 C 4.34375 -7.984375 4.945312 -7.789062 5.375 -7.40625 C 5.8125 -7.03125 6.03125 -6.484375 6.03125 -5.765625 C 6.03125 -5.253906 5.875 -4.816406 5.5625 -4.453125 C 5.25 -4.097656 4.84375 -3.847656 4.34375 -3.703125 C 4.925781 -2.535156 5.316406 -1.789062 5.515625 -1.46875 C 5.515625 -1.457031 5.703125 -1.1875 6.078125 -0.65625 L 6.828125 -0.53125 L 6.78125 0.046875 L 6.375 0.015625 C 6.0625 0.00390625 5.847656 0 5.734375 0 C 5.617188 0 5.425781 0.015625 5.15625 0.046875 L 5.09375 0 C 4.789062 -0.675781 4.582031 -1.109375 4.46875 -1.296875 L 3.3125 -3.5625 C 2.863281 -3.5625 2.535156 -3.566406 2.328125 -3.578125 L 2.328125 -1.859375 C 2.328125 -1.472656 2.335938 -1.203125 2.359375 -1.046875 L 2.40625 -0.640625 L 3.171875 -0.5625 L 3.09375 0.046875 L 2.671875 0.015625 C 2.335938 0.00390625 2.023438 0 1.734375 0 C 1.441406 0 1.15625 0.0195312 0.875 0.0625 L 0.40625 0.09375 L 0.328125 -0.53125 L 1.1875 -0.640625 C 1.195312 -0.703125 1.21875 -0.828125 1.25 -1.015625 C 1.289062 -1.210938 1.3125 -1.382812 1.3125 -1.53125 L 1.3125 -6.34375 C 1.3125 -6.445312 1.289062 -6.59375 1.25 -6.78125 C 1.21875 -6.976562 1.195312 -7.128906 1.1875 -7.234375 L 0.328125 -7.359375 L 0.390625 -7.921875 L 0.75 -7.890625 C 1.03125 -7.867188 1.265625 -7.859375 1.453125 -7.859375 Z M 3.09375 -4.140625 C 3.664062 -4.140625 4.113281 -4.273438 4.4375 -4.546875 C 4.769531 -4.828125 4.9375 -5.234375 4.9375 -5.765625 C 4.9375 -6.304688 4.769531 -6.71875 4.4375 -7 C 4.113281 -7.28125 3.664062 -7.421875 3.09375 -7.421875 C 2.9375 -7.421875 2.707031 -7.398438 2.40625 -7.359375 L 2.40625 -7.34375 L 2.359375 -6.890625 C 2.335938 -6.703125 2.328125 -6.40625 2.328125 -6 L 2.328125 -4.171875 C 2.515625 -4.148438 2.769531 -4.140625 3.09375 -4.140625 Z M 3.09375 -4.140625 "/></g></g></g><g fill="#ffffff" fill-opacity="1"><g transform="translate(92.714757, 216.064563)"><g><path d="M 114.3125 16.828125 C 114.726562 16.828125 115.144531 16.828125 115.5625 16.828125 L 115.5625 17.875 C 113.625 18.15625 111.457031 18.296875 109.0625 18.296875 C 106.675781 18.296875 103.734375 17.773438 100.234375 16.734375 C 96.734375 15.691406 93.5625 13.75 90.71875 10.90625 C 84.90625 5.09375 81.375 -2.457031 80.125 -11.75 L 73.78125 -57.984375 L 52.171875 -9.140625 C 50.234375 -4.921875 49.054688 -1.390625 48.640625 1.453125 L 47.59375 1.453125 L 20.6875 -57.046875 L 16.109375 -5.40625 C 15.972656 -4.226562 16.335938 -3.1875 17.203125 -2.28125 C 18.066406 -1.382812 19.019531 -0.9375 20.0625 -0.9375 L 21.71875 -0.9375 L 21.71875 0 L 1.5625 0 L 1.5625 -1.046875 L 3.21875 -1.046875 C 5.09375 -1.046875 6.738281 -1.613281 8.15625 -2.75 C 9.570312 -3.894531 10.457031 -5.40625 10.8125 -7.28125 L 17.359375 -64.015625 C 11.253906 -76.003906 3.941406 -82 -4.578125 -82 C -5.335938 -82 -6.132812 -81.960938 -6.96875 -81.890625 L -6.96875 -82.921875 C -5.09375 -83.410156 -3.566406 -83.65625 -2.390625 -83.65625 C -1.210938 -83.65625 0.0664062 -83.601562 1.453125 -83.5 C 2.835938 -83.394531 4.460938 -83.066406 6.328125 -82.515625 C 8.203125 -81.960938 9.972656 -81.148438 11.640625 -80.078125 C 13.304688 -79.003906 14.757812 -77.894531 16 -76.75 C 17.25 -75.601562 18.425781 -74.335938 19.53125 -72.953125 C 21.40625 -70.460938 22.894531 -68.070312 24 -65.78125 L 49.046875 -11.53125 L 77 -74.203125 L 77.9375 -74.203125 L 87.609375 -12.671875 C 89.054688 -2.972656 92.1875 4.363281 97 9.34375 C 101.820312 14.332031 107.59375 16.828125 114.3125 16.828125 Z M 114.3125 16.828125 "/></g></g></g></svg>